<?xml version="1.0" encoding="UTF-8" standalone="no"?>
<!DOCTYPE svg PUBLIC "-//W3C//DTD SVG 1.1//EN"
 "http://www.w3.org/Graphics/SVG/1.1/DTD/svg11.dtd">
<!-- Generated by graphviz version 12.0.0 (20240704.0754)
 -->
<!-- Title: BPMN Pages: 1 -->
<svg width="1239pt" height="132pt"
 viewBox="0.00 0.00 1239.25 132.00" xmlns="http://www.w3.org/2000/svg" xmlns:xlink="http://www.w3.org/1999/xlink">
<g id="graph0" class="graph" transform="scale(1 1) rotate(0) translate(4 128)">
<title>BPMN</title>
<polygon fill="white" stroke="none" points="-4,4 -4,-128 1235.25,-128 1235.25,4 -4,4"/>
<!-- start_receive_inquiry -->
<g id="node1" class="node">
<title>start_receive_inquiry</title>
<ellipse fill="green" stroke="green" cx="18" cy="-18" rx="18" ry="18"/>
</g>
<!-- a_register_inquiry -->
<g id="node3" class="node">
<title>a_register_inquiry</title>
<path fill="none" stroke="lightgreen" d="M179.75,-36C179.75,-36 85,-36 85,-36 79,-36 73,-30 73,-24 73,-24 73,-12 73,-12 73,-6 79,0 85,0 85,0 179.75,0 179.75,0 185.75,0 191.75,-6 191.75,-12 191.75,-12 191.75,-24 191.75,-24 191.75,-30 185.75,-36 179.75,-36"/>
<text text-anchor="middle" x="132.38" y="-12.58" font-family="Times New Roman,serif" font-size="14.00">A_RegisterInquiry</text>
</g>
<!-- start_receive_inquiry&#45;&gt;a_register_inquiry -->
<g id="edge1" class="edge">
<title>start_receive_inquiry&#45;&gt;a_register_inquiry</title>
<path fill="none" stroke="black" d="M36.07,-18C43.14,-18 51.85,-18 61.11,-18"/>
<polygon fill="black" stroke="black" points="61.08,-21.5 71.08,-18 61.08,-14.5 61.08,-21.5"/>
</g>
<!-- end_approve_response -->
<g id="node2" class="node">
<title>end_approve_response</title>
<ellipse fill="red" stroke="red" stroke-width="3" cx="1058.38" cy="-106" rx="18" ry="18"/>
</g>
<!-- a_investigate_inquiry -->
<g id="node4" class="node">
<title>a_investigate_inquiry</title>
<path fill="none" stroke="lightgreen" d="M349,-36C349,-36 240.75,-36 240.75,-36 234.75,-36 228.75,-30 228.75,-24 228.75,-24 228.75,-12 228.75,-12 228.75,-6 234.75,0 240.75,0 240.75,0 349,0 349,0 355,0 361,-6 361,-12 361,-12 361,-24 361,-24 361,-30 355,-36 349,-36"/>
<text text-anchor="middle" x="294.88" y="-12.58" font-family="Times New Roman,serif" font-size="14.00">A_InvestigateInquiry</text>
</g>
<!-- a_register_inquiry&#45;&gt;a_investigate_inquiry -->
<g id="edge2" class="edge">
<title>a_register_inquiry&#45;&gt;a_investigate_inquiry</title>
<path fill="none" stroke="black" d="M192.23,-18C200.29,-18 208.65,-18 216.97,-18"/>
<polygon fill="black" stroke="black" points="216.74,-21.5 226.74,-18 216.74,-14.5 216.74,-21.5"/>
</g>
<!-- a_prepare_response -->
<g id="node5" class="node">
<title>a_prepare_response</title>
<path fill="none" stroke="lightgreen" d="M517.5,-36C517.5,-36 410,-36 410,-36 404,-36 398,-30 398,-24 398,-24 398,-12 398,-12 398,-6 404,0 410,0 410,0 517.5,0 517.5,0 523.5,0 529.5,-6 529.5,-12 529.5,-12 529.5,-24 529.5,-24 529.5,-30 523.5,-36 517.5,-36"/>
<text text-anchor="middle" x="463.75" y="-12.58" font-family="Times New Roman,serif" font-size="14.00">A_PrepareResponse</text>
</g>
<!-- a_investigate_inquiry&#45;&gt;a_prepare_response -->
<g id="edge3" class="edge">
<title>a_investigate_inquiry&#45;&gt;a_prepare_response</title>
<path fill="none" stroke="black" d="M361.35,-18C369.57,-18 378.04,-18 386.41,-18"/>
<polygon fill="black" stroke="black" points="386.22,-21.5 396.22,-18 386.22,-14.5 386.22,-21.5"/>
</g>
<!-- a_review_response -->
<g id="node6" class="node">
<title>a_review_response</title>
<path fill="none" stroke="lightgreen" d="M684.5,-36C684.5,-36 578.5,-36 578.5,-36 572.5,-36 566.5,-30 566.5,-24 566.5,-24 566.5,-12 566.5,-12 566.5,-6 572.5,0 578.5,0 578.5,0 684.5,0 684.5,0 690.5,0 696.5,-6 696.5,-12 696.5,-12 696.5,-24 696.5,-24 696.5,-30 690.5,-36 684.5,-36"/>
<text text-anchor="middle" x="631.5" y="-12.58" font-family="Times New Roman,serif" font-size="14.00">A_ReviewResponse</text>
</g>
<!-- a_prepare_response&#45;&gt;a_review_response -->
<g id="edge4" class="edge">
<title>a_prepare_response&#45;&gt;a_review_response</title>
<path fill="none" stroke="black" d="M529.78,-18C538.01,-18 546.49,-18 554.87,-18"/>
<polygon fill="black" stroke="black" points="554.68,-21.5 564.68,-18 554.68,-14.5 554.68,-21.5"/>
</g>
<!-- xor_review_response -->
<g id="node8" class="node">
<title>xor_review_response</title>
<polygon fill="#ffd700" stroke="#ffd700" points="760.5,-70 733.5,-52 760.5,-34 787.5,-52 760.5,-70"/>
<text text-anchor="middle" x="760.5" y="-46.58" font-family="Times New Roman,serif" font-size="14.00">X</text>
</g>
<!-- a_review_response&#45;&gt;xor_review_response -->
<g id="edge5" class="edge">
<title>a_review_response&#45;&gt;xor_review_response</title>
<path fill="none" stroke="black" d="M696.74,-35.2C708.24,-38.28 719.71,-41.35 729.63,-44"/>
<polygon fill="black" stroke="black" points="728.46,-47.31 739.02,-46.52 730.27,-40.55 728.46,-47.31"/>
</g>
<!-- a_prepare_response_again -->
<g id="node7" class="node">
<title>a_prepare_response_again</title>
<path fill="none" stroke="lightgreen" d="M1128.25,-70C1128.25,-70 988.5,-70 988.5,-70 982.5,-70 976.5,-64 976.5,-58 976.5,-58 976.5,-46 976.5,-46 976.5,-40 982.5,-34 988.5,-34 988.5,-34 1128.25,-34 1128.25,-34 1134.25,-34 1140.25,-40 1140.25,-46 1140.25,-46 1140.25,-58 1140.25,-58 1140.25,-64 1134.25,-70 1128.25,-70"/>
<text text-anchor="middle" x="1058.38" y="-46.58" font-family="Times New Roman,serif" font-size="14.00">A_PrepareResponseAgain</text>
</g>
<!-- xor_prepare_response_again -->
<g id="node9" class="node">
<title>xor_prepare_response_again</title>
<polygon fill="#ffd700" stroke="#ffd700" points="1204.25,-36 1177.25,-18 1204.25,0 1231.25,-18 1204.25,-36"/>
<text text-anchor="middle" x="1204.25" y="-12.58" font-family="Times New Roman,serif" font-size="14.00">X</text>
</g>
<!-- a_prepare_response_again&#45;&gt;xor_prepare_response_again -->
<g id="edge8" class="edge">
<title>a_prepare_response_again&#45;&gt;xor_prepare_response_again</title>
<path fill="none" stroke="black" d="M1137.63,-33.51C1150.08,-30.57 1162.27,-27.68 1172.71,-25.22"/>
<polygon fill="black" stroke="black" points="1173.26,-28.68 1182.19,-22.98 1171.65,-21.87 1173.26,-28.68"/>
</g>
<!-- xor_review_response&#45;&gt;end_approve_response -->
<g id="edge7" class="edge">
<title>xor_review_response&#45;&gt;end_approve_response</title>
<path fill="none" stroke="black" d="M776.16,-59.97C784.52,-64.18 795.34,-69.07 805.5,-72 883.71,-94.52 979.97,-102.24 1027.67,-104.79"/>
<polygon fill="black" stroke="black" points="1027.31,-108.28 1037.47,-105.28 1027.65,-101.29 1027.31,-108.28"/>
<text text-anchor="middle" x="882" y="-100.45" font-family="Times New Roman,serif" font-size="14.00">if response is approved</text>
</g>
<!-- xor_review_response&#45;&gt;a_prepare_response_again -->
<g id="edge6" class="edge">
<title>xor_review_response&#45;&gt;a_prepare_response_again</title>
<path fill="none" stroke="black" d="M788.28,-52C827.85,-52 903.86,-52 965.03,-52"/>
<polygon fill="black" stroke="black" points="964.75,-55.5 974.75,-52 964.75,-48.5 964.75,-55.5"/>
<text text-anchor="middle" x="882" y="-54.45" font-family="Times New Roman,serif" font-size="14.00">if response is not approved</text>
</g>
<!-- xor_prepare_response_again&#45;&gt;a_review_response -->
<g id="edge9" class="edge">
<title>xor_prepare_response_again&#45;&gt;a_review_response</title>
<path fill="none" stroke="black" d="M1176.61,-18C1093.54,-18 837.13,-18 708.18,-18"/>
<polygon fill="black" stroke="black" points="708.38,-14.5 698.38,-18 708.38,-21.5 708.38,-14.5"/>
</g>
</g>
</svg>
