<?xml version="1.0" encoding="UTF-8" standalone="no"?>
<!DOCTYPE svg PUBLIC "-//W3C//DTD SVG 1.1//EN"
 "http://www.w3.org/Graphics/SVG/1.1/DTD/svg11.dtd">
<!-- Generated by graphviz version 12.0.0 (20240704.0754)
 -->
<!-- Title: BPMN Pages: 1 -->
<svg width="889pt" height="175pt"
 viewBox="0.00 0.00 889.00 175.25" xmlns="http://www.w3.org/2000/svg" xmlns:xlink="http://www.w3.org/1999/xlink">
<g id="graph0" class="graph" transform="scale(1 1) rotate(0) translate(4 171.25)">
<title>BPMN</title>
<polygon fill="white" stroke="none" points="-4,4 -4,-171.25 885,-171.25 885,4 -4,4"/>
<!-- Start_ReceiveOrder -->
<g id="node1" class="node">
<title>Start_ReceiveOrder</title>
<ellipse fill="forestgreen" stroke="forestgreen" stroke-width="2" cx="65" cy="-91" rx="18" ry="18"/>
</g>
<!-- OR_DistributeOrder -->
<g id="node6" class="node">
<title>OR_DistributeOrder</title>
<polygon fill="gold" stroke="black" points="194,-109 167,-91 194,-73 221,-91 194,-109"/>
<text text-anchor="middle" x="194" y="-85.58" font-family="Times New Roman,serif" font-size="14.00">O</text>
</g>
<!-- Start_ReceiveOrder&#45;&gt;OR_DistributeOrder -->
<g id="edge1" class="edge">
<title>Start_ReceiveOrder&#45;&gt;OR_DistributeOrder</title>
<path fill="none" stroke="black" d="M83.93,-91C102.29,-91 131.41,-91 154.94,-91"/>
<polygon fill="black" stroke="black" points="154.8,-94.5 164.8,-91 154.8,-87.5 154.8,-94.5"/>
</g>
<!-- start_label -->
<g id="node8" class="node">
<title>start_label</title>
<polygon fill="white" stroke="none" points="130,-37 0,-37 0,-1 130,-1 130,-37"/>
<text text-anchor="middle" x="65" y="-13.57" font-family="Times New Roman,serif" font-size="14.00">Start: Receive Order</text>
</g>
<!-- Start_ReceiveOrder&#45;&gt;start_label -->
<!-- End_RegisterOrder -->
<g id="node2" class="node">
<title>End_RegisterOrder</title>
<ellipse fill="firebrick" stroke="firebrick" stroke-width="3" cx="817.12" cy="-90" rx="18" ry="18"/>
</g>
<!-- end_label -->
<g id="node9" class="node">
<title>end_label</title>
<polygon fill="white" stroke="none" points="881,-36 753.25,-36 753.25,0 881,0 881,-36"/>
<text text-anchor="middle" x="817.12" y="-12.57" font-family="Times New Roman,serif" font-size="14.00">End: Register Order</text>
</g>
<!-- End_RegisterOrder&#45;&gt;end_label -->
<!-- A_SendSubOrderAmsterdam -->
<g id="node3" class="node">
<title>A_SendSubOrderAmsterdam</title>
<path fill="lightgoldenrodyellow" stroke="black" d="M510.75,-142.75C510.75,-142.75 413.75,-142.75 413.75,-142.75 407.75,-142.75 401.75,-136.75 401.75,-130.75 401.75,-130.75 401.75,-115.25 401.75,-115.25 401.75,-109.25 407.75,-103.25 413.75,-103.25 413.75,-103.25 510.75,-103.25 510.75,-103.25 516.75,-103.25 522.75,-109.25 522.75,-115.25 522.75,-115.25 522.75,-130.75 522.75,-130.75 522.75,-136.75 516.75,-142.75 510.75,-142.75"/>
<text text-anchor="middle" x="462.25" y="-125.45" font-family="Times New Roman,serif" font-size="14.00">Send Sub </text>
<text text-anchor="middle" x="462.25" y="-109.7" font-family="Times New Roman,serif" font-size="14.00"> Order Amsterdam</text>
</g>
<!-- AND_RegisterOrder -->
<g id="node7" class="node">
<title>AND_RegisterOrder</title>
<polygon fill="gold" stroke="black" points="586.75,-108 559.75,-90 586.75,-72 613.75,-90 586.75,-108"/>
<text text-anchor="middle" x="586.75" y="-84.58" font-family="Times New Roman,serif" font-size="14.00">+</text>
</g>
<!-- A_SendSubOrderAmsterdam&#45;&gt;AND_RegisterOrder -->
<g id="edge4" class="edge">
<title>A_SendSubOrderAmsterdam&#45;&gt;AND_RegisterOrder</title>
<path fill="none" stroke="black" d="M523.06,-106.89C534.41,-103.83 545.83,-100.75 555.75,-98.08"/>
<polygon fill="black" stroke="black" points="556.41,-101.53 565.16,-95.55 554.59,-94.77 556.41,-101.53"/>
</g>
<!-- A_SendSubOrderHamburg -->
<g id="node4" class="node">
<title>A_SendSubOrderHamburg</title>
<path fill="lightgoldenrodyellow" stroke="black" d="M504.38,-81.75C504.38,-81.75 420.12,-81.75 420.12,-81.75 414.12,-81.75 408.12,-75.75 408.12,-69.75 408.12,-69.75 408.12,-54.25 408.12,-54.25 408.12,-48.25 414.12,-42.25 420.12,-42.25 420.12,-42.25 504.38,-42.25 504.38,-42.25 510.38,-42.25 516.38,-48.25 516.38,-54.25 516.38,-54.25 516.38,-69.75 516.38,-69.75 516.38,-75.75 510.38,-81.75 504.38,-81.75"/>
<text text-anchor="middle" x="462.25" y="-64.45" font-family="Times New Roman,serif" font-size="14.00">Send Sub </text>
<text text-anchor="middle" x="462.25" y="-48.7" font-family="Times New Roman,serif" font-size="14.00"> Order Hamburg</text>
</g>
<!-- A_SendSubOrderHamburg&#45;&gt;AND_RegisterOrder -->
<g id="edge5" class="edge">
<title>A_SendSubOrderHamburg&#45;&gt;AND_RegisterOrder</title>
<path fill="none" stroke="black" d="M516.62,-74.2C529.78,-77.21 543.42,-80.33 555.08,-82.99"/>
<polygon fill="black" stroke="black" points="553.98,-86.33 564.51,-85.14 555.54,-79.5 553.98,-86.33"/>
</g>
<!-- A_RegisterOrder -->
<g id="node5" class="node">
<title>A_RegisterOrder</title>
<path fill="lightgoldenrodyellow" stroke="black" d="M704.25,-109.75C704.25,-109.75 662.75,-109.75 662.75,-109.75 656.75,-109.75 650.75,-103.75 650.75,-97.75 650.75,-97.75 650.75,-82.25 650.75,-82.25 650.75,-76.25 656.75,-70.25 662.75,-70.25 662.75,-70.25 704.25,-70.25 704.25,-70.25 710.25,-70.25 716.25,-76.25 716.25,-82.25 716.25,-82.25 716.25,-97.75 716.25,-97.75 716.25,-103.75 710.25,-109.75 704.25,-109.75"/>
<text text-anchor="middle" x="683.5" y="-92.45" font-family="Times New Roman,serif" font-size="14.00">Register </text>
<text text-anchor="middle" x="683.5" y="-76.7" font-family="Times New Roman,serif" font-size="14.00"> Order</text>
</g>
<!-- A_RegisterOrder&#45;&gt;End_RegisterOrder -->
<g id="edge7" class="edge">
<title>A_RegisterOrder&#45;&gt;End_RegisterOrder</title>
<path fill="none" stroke="black" d="M716.7,-90C737.95,-90 765.59,-90 786.33,-90"/>
<polygon fill="black" stroke="black" points="786.13,-93.5 796.13,-90 786.13,-86.5 786.13,-93.5"/>
</g>
<!-- OR_DistributeOrder&#45;&gt;A_SendSubOrderAmsterdam -->
<g id="edge2" class="edge">
<title>OR_DistributeOrder&#45;&gt;A_SendSubOrderAmsterdam</title>
<path fill="none" stroke="black" d="M212.36,-97.01C220.38,-99.56 230.08,-102.32 239,-104 288.96,-113.41 346.12,-118.17 389.96,-120.57"/>
<polygon fill="black" stroke="black" points="389.7,-124.06 399.87,-121.08 390.06,-117.07 389.7,-124.06"/>
<text text-anchor="middle" x="311.38" y="-153.95" font-family="Times New Roman,serif" font-size="14.00">if some of the </text>
<text text-anchor="middle" x="311.38" y="-138.2" font-family="Times New Roman,serif" font-size="14.00"> relevant products are </text>
<text text-anchor="middle" x="311.38" y="-122.45" font-family="Times New Roman,serif" font-size="14.00"> maintained in Amsterdam</text>
</g>
<!-- OR_DistributeOrder&#45;&gt;A_SendSubOrderHamburg -->
<g id="edge3" class="edge">
<title>OR_DistributeOrder&#45;&gt;A_SendSubOrderHamburg</title>
<path fill="none" stroke="black" d="M204.99,-80.01C213.2,-71.83 225.63,-61.34 239,-56.75 289.98,-39.25 351.49,-42.4 396.86,-48.89"/>
<polygon fill="black" stroke="black" points="396.12,-52.32 406.53,-50.37 397.18,-45.4 396.12,-52.32"/>
<text text-anchor="middle" x="311.38" y="-89.95" font-family="Times New Roman,serif" font-size="14.00">if some relevant </text>
<text text-anchor="middle" x="311.38" y="-74.2" font-family="Times New Roman,serif" font-size="14.00"> products are </text>
<text text-anchor="middle" x="311.38" y="-58.45" font-family="Times New Roman,serif" font-size="14.00"> maintained in Hamburg</text>
</g>
<!-- AND_RegisterOrder&#45;&gt;A_RegisterOrder -->
<g id="edge6" class="edge">
<title>AND_RegisterOrder&#45;&gt;A_RegisterOrder</title>
<path fill="none" stroke="black" d="M614.65,-90C622.32,-90 630.88,-90 639.27,-90"/>
<polygon fill="black" stroke="black" points="638.98,-93.5 648.98,-90 638.98,-86.5 638.98,-93.5"/>
</g>
</g>
</svg>
