<?xml version="1.0" encoding="UTF-8" standalone="no"?>
<!DOCTYPE svg PUBLIC "-//W3C//DTD SVG 1.1//EN"
 "http://www.w3.org/Graphics/SVG/1.1/DTD/svg11.dtd">
<!-- Generated by graphviz version 12.0.0 (20240704.0754)
 -->
<!-- Title: BPMN Pages: 1 -->
<svg width="1178pt" height="125pt"
 viewBox="0.00 0.00 1177.81 125.00" xmlns="http://www.w3.org/2000/svg" xmlns:xlink="http://www.w3.org/1999/xlink">
<g id="graph0" class="graph" transform="scale(1 1) rotate(0) translate(4 121)">
<title>BPMN</title>
<polygon fill="white" stroke="none" points="-4,4 -4,-121 1173.81,-121 1173.81,4 -4,4"/>
<!-- Start_RegisterInquiry -->
<g id="node1" class="node">
<title>Start_RegisterInquiry</title>
<ellipse fill="forestgreen" stroke="forestgreen" stroke-width="2" cx="18" cy="-44" rx="18" ry="18"/>
</g>
<!-- A_RegisterInquiry -->
<g id="node7" class="node">
<title>A_RegisterInquiry</title>
<path fill="lightgoldenrodyellow" stroke="black" d="M162.5,-62C162.5,-62 85,-62 85,-62 79,-62 73,-56 73,-50 73,-50 73,-38 73,-38 73,-32 79,-26 85,-26 85,-26 162.5,-26 162.5,-26 168.5,-26 174.5,-32 174.5,-38 174.5,-38 174.5,-50 174.5,-50 174.5,-56 168.5,-62 162.5,-62"/>
<text text-anchor="middle" x="123.75" y="-38.58" font-family="Times New Roman,serif" font-size="14.00">RegisterInquiry</text>
</g>
<!-- Start_RegisterInquiry&#45;&gt;A_RegisterInquiry -->
<g id="edge1" class="edge">
<title>Start_RegisterInquiry&#45;&gt;A_RegisterInquiry</title>
<path fill="none" stroke="black" d="M36.6,-44C43.75,-44 52.48,-44 61.6,-44"/>
<polygon fill="black" stroke="black" points="61.32,-47.5 71.32,-44 61.32,-40.5 61.32,-47.5"/>
</g>
<!-- End_ApproveResponse -->
<g id="node2" class="node">
<title>End_ApproveResponse</title>
<ellipse fill="firebrick" stroke="firebrick" stroke-width="3" cx="1104.81" cy="-81" rx="18" ry="18"/>
</g>
<!-- A_ReviewResponse -->
<g id="node3" class="node">
<title>A_ReviewResponse</title>
<path fill="lightgoldenrodyellow" stroke="black" d="M615.5,-62C615.5,-62 526.75,-62 526.75,-62 520.75,-62 514.75,-56 514.75,-50 514.75,-50 514.75,-38 514.75,-38 514.75,-32 520.75,-26 526.75,-26 526.75,-26 615.5,-26 615.5,-26 621.5,-26 627.5,-32 627.5,-38 627.5,-38 627.5,-50 627.5,-50 627.5,-56 621.5,-62 615.5,-62"/>
<text text-anchor="middle" x="571.12" y="-38.58" font-family="Times New Roman,serif" font-size="14.00">ReviewResponse</text>
</g>
<!-- XOR_ResponseFinalization -->
<g id="node8" class="node">
<title>XOR_ResponseFinalization</title>
<polygon fill="gold" stroke="black" points="707.78,-117 664.5,-99 707.78,-81 751.06,-99 707.78,-117"/>
<text text-anchor="middle" x="707.78" y="-93.58" font-family="Times New Roman,serif" font-size="14.00">XOR</text>
</g>
<!-- A_ReviewResponse&#45;&gt;XOR_ResponseFinalization -->
<g id="edge9" class="edge">
<title>A_ReviewResponse&#45;&gt;XOR_ResponseFinalization</title>
<path fill="none" stroke="black" d="M617.34,-62.47C636.02,-70.1 657.25,-78.77 674.34,-85.75"/>
<polygon fill="black" stroke="black" points="672.92,-88.95 683.5,-89.49 675.56,-82.47 672.92,-88.95"/>
</g>
<!-- XOR_ReviewResponseApproval -->
<g id="node9" class="node">
<title>XOR_ReviewResponseApproval</title>
<polygon fill="gold" stroke="black" points="707.78,-62 664.5,-44 707.78,-26 751.06,-44 707.78,-62"/>
<text text-anchor="middle" x="707.78" y="-38.58" font-family="Times New Roman,serif" font-size="14.00">XOR</text>
</g>
<!-- A_ReviewResponse&#45;&gt;XOR_ReviewResponseApproval -->
<g id="edge5" class="edge">
<title>A_ReviewResponse&#45;&gt;XOR_ReviewResponseApproval</title>
<path fill="none" stroke="black" d="M627.67,-44C635.66,-44 643.87,-44 651.84,-44"/>
<polygon fill="black" stroke="black" points="651.78,-47.5 661.78,-44 651.78,-40.5 651.78,-47.5"/>
</g>
<!-- A_RePrepareResponse -->
<g id="node4" class="node">
<title>A_RePrepareResponse</title>
<path fill="lightgoldenrodyellow" stroke="black" d="M1157.81,-36C1157.81,-36 1051.81,-36 1051.81,-36 1045.81,-36 1039.81,-30 1039.81,-24 1039.81,-24 1039.81,-12 1039.81,-12 1039.81,-6 1045.81,0 1051.81,0 1051.81,0 1157.81,0 1157.81,0 1163.81,0 1169.81,-6 1169.81,-12 1169.81,-12 1169.81,-24 1169.81,-24 1169.81,-30 1163.81,-36 1157.81,-36"/>
<text text-anchor="middle" x="1104.81" y="-12.57" font-family="Times New Roman,serif" font-size="14.00">RePrepareResponse</text>
</g>
<!-- A_RePrepareResponse&#45;&gt;A_ReviewResponse -->
<g id="edge8" class="edge">
<title>A_RePrepareResponse&#45;&gt;A_ReviewResponse</title>
<path fill="none" stroke="black" d="M1039.67,-11.54C953.67,-4.32 796.53,3.84 664.5,-17 655.8,-18.37 646.76,-20.33 637.89,-22.56"/>
<polygon fill="black" stroke="black" points="637.02,-19.17 628.26,-25.13 638.82,-25.94 637.02,-19.17"/>
</g>
<!-- A_InvestigateInquiry -->
<g id="node5" class="node">
<title>A_InvestigateInquiry</title>
<path fill="lightgoldenrodyellow" stroke="black" d="M314.5,-62C314.5,-62 223.5,-62 223.5,-62 217.5,-62 211.5,-56 211.5,-50 211.5,-50 211.5,-38 211.5,-38 211.5,-32 217.5,-26 223.5,-26 223.5,-26 314.5,-26 314.5,-26 320.5,-26 326.5,-32 326.5,-38 326.5,-38 326.5,-50 326.5,-50 326.5,-56 320.5,-62 314.5,-62"/>
<text text-anchor="middle" x="269" y="-38.58" font-family="Times New Roman,serif" font-size="14.00">InvestigateInquiry</text>
</g>
<!-- A_PrepareResponse -->
<g id="node6" class="node">
<title>A_PrepareResponse</title>
<path fill="lightgoldenrodyellow" stroke="black" d="M465.75,-62C465.75,-62 375.5,-62 375.5,-62 369.5,-62 363.5,-56 363.5,-50 363.5,-50 363.5,-38 363.5,-38 363.5,-32 369.5,-26 375.5,-26 375.5,-26 465.75,-26 465.75,-26 471.75,-26 477.75,-32 477.75,-38 477.75,-38 477.75,-50 477.75,-50 477.75,-56 471.75,-62 465.75,-62"/>
<text text-anchor="middle" x="420.62" y="-38.58" font-family="Times New Roman,serif" font-size="14.00">PrepareResponse</text>
</g>
<!-- A_InvestigateInquiry&#45;&gt;A_PrepareResponse -->
<g id="edge3" class="edge">
<title>A_InvestigateInquiry&#45;&gt;A_PrepareResponse</title>
<path fill="none" stroke="black" d="M326.99,-44C335.17,-44 343.65,-44 352,-44"/>
<polygon fill="black" stroke="black" points="351.77,-47.5 361.77,-44 351.77,-40.5 351.77,-47.5"/>
</g>
<!-- A_PrepareResponse&#45;&gt;A_ReviewResponse -->
<g id="edge4" class="edge">
<title>A_PrepareResponse&#45;&gt;A_ReviewResponse</title>
<path fill="none" stroke="black" d="M478.19,-44C486.42,-44 494.95,-44 503.36,-44"/>
<polygon fill="black" stroke="black" points="503.19,-47.5 513.19,-44 503.19,-40.5 503.19,-47.5"/>
</g>
<!-- A_RegisterInquiry&#45;&gt;A_InvestigateInquiry -->
<g id="edge2" class="edge">
<title>A_RegisterInquiry&#45;&gt;A_InvestigateInquiry</title>
<path fill="none" stroke="black" d="M174.85,-44C182.95,-44 191.45,-44 199.89,-44"/>
<polygon fill="black" stroke="black" points="199.8,-47.5 209.8,-44 199.8,-40.5 199.8,-47.5"/>
</g>
<!-- XOR_ResponseFinalization&#45;&gt;End_ApproveResponse -->
<g id="edge10" class="edge">
<title>XOR_ResponseFinalization&#45;&gt;End_ApproveResponse</title>
<path fill="none" stroke="black" d="M748.82,-97.59C808.36,-95.43 923.76,-91.02 1021.81,-86 1039.29,-85.1 1058.86,-83.92 1074.49,-82.93"/>
<polygon fill="black" stroke="black" points="1074.32,-86.44 1084.07,-82.31 1073.87,-79.46 1074.32,-86.44"/>
</g>
<!-- XOR_ReviewResponseApproval&#45;&gt;End_ApproveResponse -->
<g id="edge7" class="edge">
<title>XOR_ReviewResponseApproval&#45;&gt;End_ApproveResponse</title>
<path fill="none" stroke="black" d="M746.85,-46.19C818.22,-50.39 969.64,-59.72 1021.81,-66.25 1039.54,-68.47 1059.25,-71.98 1074.9,-75.02"/>
<polygon fill="black" stroke="black" points="1074.01,-78.41 1084.5,-76.93 1075.37,-71.54 1074.01,-78.41"/>
<text text-anchor="middle" x="895.44" y="-68.45" font-family="Times New Roman,serif" font-size="14.00">if the registrar approves the response</text>
</g>
<!-- XOR_ReviewResponseApproval&#45;&gt;A_RePrepareResponse -->
<g id="edge6" class="edge">
<title>XOR_ReviewResponseApproval&#45;&gt;A_RePrepareResponse</title>
<path fill="none" stroke="black" d="M735.93,-37.24C746.24,-34.94 758.13,-32.61 769.06,-31.25 857.45,-20.23 959.88,-17.66 1027.92,-17.36"/>
<polygon fill="black" stroke="black" points="1027.87,-20.86 1037.86,-17.34 1027.86,-13.86 1027.87,-20.86"/>
<text text-anchor="middle" x="895.44" y="-33.45" font-family="Times New Roman,serif" font-size="14.00">if the registrar does not approve the response</text>
</g>
</g>
</svg>
