<?xml version="1.0" encoding="UTF-8" standalone="no"?>
<!DOCTYPE svg PUBLIC "-//W3C//DTD SVG 1.1//EN"
 "http://www.w3.org/Graphics/SVG/1.1/DTD/svg11.dtd">
<!-- Generated by graphviz version 12.0.0 (20240704.0754)
 -->
<!-- Title: BPMN Pages: 1 -->
<svg width="1133pt" height="165pt"
 viewBox="0.00 0.00 1132.63 165.00" xmlns="http://www.w3.org/2000/svg" xmlns:xlink="http://www.w3.org/1999/xlink">
<g id="graph0" class="graph" transform="scale(1 1) rotate(0) translate(4 161)">
<title>BPMN</title>
<polygon fill="white" stroke="none" points="-4,4 -4,-161 1128.63,-161 1128.63,4 -4,4"/>
<!-- Start_ReceiveInquiry -->
<g id="node1" class="node">
<title>Start_ReceiveInquiry</title>
<ellipse fill="forestgreen" stroke="forestgreen" stroke-width="2" cx="18" cy="-41" rx="18" ry="18"/>
</g>
<!-- XOR_RegisterInquiry -->
<g id="node9" class="node">
<title>XOR_RegisterInquiry</title>
<polygon fill="gold" stroke="black" points="116.28,-59 73,-41 116.28,-23 159.56,-41 116.28,-59"/>
<text text-anchor="middle" x="116.28" y="-35.58" font-family="Times New Roman,serif" font-size="14.00">XOR</text>
</g>
<!-- Start_ReceiveInquiry&#45;&gt;XOR_RegisterInquiry -->
<g id="edge1" class="edge">
<title>Start_ReceiveInquiry&#45;&gt;XOR_RegisterInquiry</title>
<path fill="none" stroke="black" d="M36.66,-41C43.53,-41 51.81,-41 60.38,-41"/>
<polygon fill="black" stroke="black" points="60.2,-44.5 70.2,-41 60.2,-37.5 60.2,-44.5"/>
</g>
<!-- End_ApproveResponse -->
<g id="node2" class="node">
<title>End_ApproveResponse</title>
<ellipse fill="firebrick" stroke="firebrick" stroke-width="3" cx="1060.75" cy="-139" rx="18" ry="18"/>
</g>
<!-- A_InvestigateInquiry -->
<g id="node3" class="node">
<title>A_InvestigateInquiry</title>
<path fill="lightgoldenrodyellow" stroke="black" d="M438.06,-59C438.06,-59 347.06,-59 347.06,-59 341.06,-59 335.06,-53 335.06,-47 335.06,-47 335.06,-35 335.06,-35 335.06,-29 341.06,-23 347.06,-23 347.06,-23 438.06,-23 438.06,-23 444.06,-23 450.06,-29 450.06,-35 450.06,-35 450.06,-47 450.06,-47 450.06,-53 444.06,-59 438.06,-59"/>
<text text-anchor="middle" x="392.56" y="-35.58" font-family="Times New Roman,serif" font-size="14.00">InvestigateInquiry</text>
</g>
<!-- A_PrepareResponse -->
<g id="node4" class="node">
<title>A_PrepareResponse</title>
<path fill="lightgoldenrodyellow" stroke="black" d="M589.31,-93C589.31,-93 499.06,-93 499.06,-93 493.06,-93 487.06,-87 487.06,-81 487.06,-81 487.06,-69 487.06,-69 487.06,-63 493.06,-57 499.06,-57 499.06,-57 589.31,-57 589.31,-57 595.31,-57 601.31,-63 601.31,-69 601.31,-69 601.31,-81 601.31,-81 601.31,-87 595.31,-93 589.31,-93"/>
<text text-anchor="middle" x="544.19" y="-69.58" font-family="Times New Roman,serif" font-size="14.00">PrepareResponse</text>
</g>
<!-- A_InvestigateInquiry&#45;&gt;A_PrepareResponse -->
<g id="edge5" class="edge">
<title>A_InvestigateInquiry&#45;&gt;A_PrepareResponse</title>
<path fill="none" stroke="black" d="M450.56,-53.95C458.83,-55.83 467.4,-57.78 475.85,-59.7"/>
<polygon fill="black" stroke="black" points="474.85,-63.06 485.37,-61.86 476.4,-56.23 474.85,-63.06"/>
</g>
<!-- E_ReviewResponse -->
<g id="node6" class="node">
<title>E_ReviewResponse</title>
<path fill="lightgoldenrodyellow" stroke="black" d="M739.06,-93C739.06,-93 650.31,-93 650.31,-93 644.31,-93 638.31,-87 638.31,-81 638.31,-81 638.31,-69 638.31,-69 638.31,-63 644.31,-57 650.31,-57 650.31,-57 739.06,-57 739.06,-57 745.06,-57 751.06,-63 751.06,-69 751.06,-69 751.06,-81 751.06,-81 751.06,-87 745.06,-93 739.06,-93"/>
<text text-anchor="middle" x="694.69" y="-69.58" font-family="Times New Roman,serif" font-size="14.00">ReviewResponse</text>
</g>
<!-- A_PrepareResponse&#45;&gt;E_ReviewResponse -->
<g id="edge6" class="edge">
<title>A_PrepareResponse&#45;&gt;E_ReviewResponse</title>
<path fill="none" stroke="black" d="M601.75,-75C609.98,-75 618.52,-75 626.92,-75"/>
<polygon fill="black" stroke="black" points="626.75,-78.5 636.75,-75 626.75,-71.5 626.75,-78.5"/>
</g>
<!-- A_RegisterInquiry -->
<g id="node5" class="node">
<title>A_RegisterInquiry</title>
<path fill="lightgoldenrodyellow" stroke="black" d="M286.06,-36C286.06,-36 208.56,-36 208.56,-36 202.56,-36 196.56,-30 196.56,-24 196.56,-24 196.56,-12 196.56,-12 196.56,-6 202.56,0 208.56,0 208.56,0 286.06,0 286.06,0 292.06,0 298.06,-6 298.06,-12 298.06,-12 298.06,-24 298.06,-24 298.06,-30 292.06,-36 286.06,-36"/>
<text text-anchor="middle" x="247.31" y="-12.57" font-family="Times New Roman,serif" font-size="14.00">RegisterInquiry</text>
</g>
<!-- A_RegisterInquiry&#45;&gt;A_InvestigateInquiry -->
<g id="edge4" class="edge">
<title>A_RegisterInquiry&#45;&gt;A_InvestigateInquiry</title>
<path fill="none" stroke="black" d="M298.42,-26.04C306.61,-27.36 315.21,-28.74 323.74,-30.11"/>
<polygon fill="black" stroke="black" points="322.95,-33.53 333.38,-31.66 324.06,-26.62 322.95,-33.53"/>
</g>
<!-- XOR_ApproveResponse -->
<g id="node8" class="node">
<title>XOR_ApproveResponse</title>
<polygon fill="gold" stroke="black" points="831.35,-131 788.06,-113 831.35,-95 874.63,-113 831.35,-131"/>
<text text-anchor="middle" x="831.35" y="-107.58" font-family="Times New Roman,serif" font-size="14.00">XOR</text>
</g>
<!-- E_ReviewResponse&#45;&gt;XOR_ApproveResponse -->
<g id="edge7" class="edge">
<title>E_ReviewResponse&#45;&gt;XOR_ApproveResponse</title>
<path fill="none" stroke="black" d="M751.24,-90.68C765.58,-94.72 780.66,-98.98 793.76,-102.68"/>
<polygon fill="black" stroke="black" points="792.67,-106 803.24,-105.35 794.57,-99.27 792.67,-106"/>
</g>
<!-- A_PrepareForRevision -->
<g id="node7" class="node">
<title>A_PrepareForRevision</title>
<path fill="lightgoldenrodyellow" stroke="black" d="M1112.63,-85C1112.63,-85 1008.88,-85 1008.88,-85 1002.88,-85 996.88,-79 996.88,-73 996.88,-73 996.88,-61 996.88,-61 996.88,-55 1002.88,-49 1008.88,-49 1008.88,-49 1112.63,-49 1112.63,-49 1118.63,-49 1124.63,-55 1124.63,-61 1124.63,-61 1124.63,-73 1124.63,-73 1124.63,-79 1118.63,-85 1112.63,-85"/>
<text text-anchor="middle" x="1060.75" y="-61.58" font-family="Times New Roman,serif" font-size="14.00">PrepareForRevision</text>
</g>
<!-- A_PrepareForRevision&#45;&gt;A_InvestigateInquiry -->
<g id="edge9" class="edge">
<title>A_PrepareForRevision&#45;&gt;A_InvestigateInquiry</title>
<path fill="none" stroke="black" d="M996.51,-50.66C951.14,-40.36 888.39,-29 832.35,-29 543.19,-29 543.19,-29 543.19,-29 516.52,-29 487.27,-30.92 461.75,-33.22"/>
<polygon fill="black" stroke="black" points="461.45,-29.73 451.83,-34.16 462.11,-36.7 461.45,-29.73"/>
</g>
<!-- A_PrepareForRevision&#45;&gt;E_ReviewResponse -->
<g id="edge10" class="edge">
<title>A_PrepareForRevision&#45;&gt;E_ReviewResponse</title>
<path fill="none" stroke="black" d="M996.42,-68.39C930.99,-69.83 829.3,-72.06 762.59,-73.53"/>
<polygon fill="black" stroke="black" points="762.81,-70.02 752.89,-73.74 762.97,-77.02 762.81,-70.02"/>
</g>
<!-- XOR_ApproveResponse&#45;&gt;End_ApproveResponse -->
<g id="edge8" class="edge">
<title>XOR_ApproveResponse&#45;&gt;End_ApproveResponse</title>
<path fill="none" stroke="black" d="M866.39,-116.89C910.82,-121.97 987.87,-130.78 1030.05,-135.6"/>
<polygon fill="black" stroke="black" points="1029.62,-139.08 1039.95,-136.74 1030.41,-132.12 1029.62,-139.08"/>
<text text-anchor="middle" x="935.75" y="-131.45" font-family="Times New Roman,serif" font-size="14.00">if approved</text>
</g>
<!-- XOR_ApproveResponse&#45;&gt;A_PrepareForRevision -->
<g id="edge11" class="edge">
<title>XOR_ApproveResponse&#45;&gt;A_PrepareForRevision</title>
<path fill="none" stroke="black" d="M859.91,-106.51C870.17,-104.15 881.91,-101.51 892.63,-99.25 922.88,-92.88 956.31,-86.33 985.28,-80.82"/>
<polygon fill="black" stroke="black" points="985.9,-84.26 995.07,-78.96 984.6,-77.38 985.9,-84.26"/>
<text text-anchor="middle" x="935.75" y="-101.45" font-family="Times New Roman,serif" font-size="14.00">if not approved</text>
</g>
<!-- XOR_RegisterInquiry&#45;&gt;A_InvestigateInquiry -->
<g id="edge3" class="edge">
<title>XOR_RegisterInquiry&#45;&gt;A_InvestigateInquiry</title>
<path fill="none" stroke="black" d="M155.17,-43.3C168.28,-43.99 183.06,-44.66 196.56,-45 241.66,-46.14 252.96,-45.96 298.06,-45 306.22,-44.83 314.77,-44.57 323.24,-44.26"/>
<polygon fill="black" stroke="black" points="323.34,-47.76 333.2,-43.88 323.08,-40.77 323.34,-47.76"/>
</g>
<!-- XOR_RegisterInquiry&#45;&gt;A_RegisterInquiry -->
<g id="edge2" class="edge">
<title>XOR_RegisterInquiry&#45;&gt;A_RegisterInquiry</title>
<path fill="none" stroke="black" d="M147.53,-35.61C158.88,-33.58 172.22,-31.21 185.36,-28.86"/>
<polygon fill="black" stroke="black" points="185.59,-32.38 194.82,-27.18 184.36,-25.49 185.59,-32.38"/>
</g>
</g>
</svg>
