<?xml version="1.0" encoding="UTF-8" standalone="no"?>
<!DOCTYPE svg PUBLIC "-//W3C//DTD SVG 1.1//EN"
 "http://www.w3.org/Graphics/SVG/1.1/DTD/svg11.dtd">
<!-- Generated by graphviz version 12.0.0 (20240704.0754)
 -->
<!-- Title: BPMN Pages: 1 -->
<svg width="1093pt" height="107pt"
 viewBox="0.00 0.00 1093.06 107.00" xmlns="http://www.w3.org/2000/svg" xmlns:xlink="http://www.w3.org/1999/xlink">
<g id="graph0" class="graph" transform="scale(1 1) rotate(0) translate(4 103)">
<title>BPMN</title>
<polygon fill="white" stroke="none" points="-4,4 -4,-103 1089.06,-103 1089.06,4 -4,4"/>
<!-- Start_ReceiveInquiry -->
<g id="node1" class="node">
<title>Start_ReceiveInquiry</title>
<ellipse fill="forestgreen" stroke="forestgreen" stroke-width="2" cx="18" cy="-21" rx="18" ry="18"/>
</g>
<!-- A_RegisterInquiry -->
<g id="node3" class="node">
<title>A_RegisterInquiry</title>
<path fill="lightgoldenrodyellow" stroke="black" d="M162.5,-39C162.5,-39 85,-39 85,-39 79,-39 73,-33 73,-27 73,-27 73,-15 73,-15 73,-9 79,-3 85,-3 85,-3 162.5,-3 162.5,-3 168.5,-3 174.5,-9 174.5,-15 174.5,-15 174.5,-27 174.5,-27 174.5,-33 168.5,-39 162.5,-39"/>
<text text-anchor="middle" x="123.75" y="-15.57" font-family="Times New Roman,serif" font-size="14.00">RegisterInquiry</text>
</g>
<!-- Start_ReceiveInquiry&#45;&gt;A_RegisterInquiry -->
<g id="edge1" class="edge">
<title>Start_ReceiveInquiry&#45;&gt;A_RegisterInquiry</title>
<path fill="none" stroke="black" d="M36.6,-21C43.75,-21 52.48,-21 61.6,-21"/>
<polygon fill="black" stroke="black" points="61.32,-24.5 71.32,-21 61.32,-17.5 61.32,-24.5"/>
</g>
<!-- End_ApproveResponse -->
<g id="node2" class="node">
<title>End_ApproveResponse</title>
<ellipse fill="firebrick" stroke="firebrick" stroke-width="3" cx="1022.69" cy="-81" rx="18" ry="18"/>
</g>
<!-- A_InvestigateInquiry -->
<g id="node5" class="node">
<title>A_InvestigateInquiry</title>
<path fill="lightgoldenrodyellow" stroke="black" d="M314.5,-39C314.5,-39 223.5,-39 223.5,-39 217.5,-39 211.5,-33 211.5,-27 211.5,-27 211.5,-15 211.5,-15 211.5,-9 217.5,-3 223.5,-3 223.5,-3 314.5,-3 314.5,-3 320.5,-3 326.5,-9 326.5,-15 326.5,-15 326.5,-27 326.5,-27 326.5,-33 320.5,-39 314.5,-39"/>
<text text-anchor="middle" x="269" y="-15.57" font-family="Times New Roman,serif" font-size="14.00">InvestigateInquiry</text>
</g>
<!-- A_RegisterInquiry&#45;&gt;A_InvestigateInquiry -->
<g id="edge2" class="edge">
<title>A_RegisterInquiry&#45;&gt;A_InvestigateInquiry</title>
<path fill="none" stroke="black" d="M174.85,-21C182.95,-21 191.45,-21 199.89,-21"/>
<polygon fill="black" stroke="black" points="199.8,-24.5 209.8,-21 199.8,-17.5 199.8,-24.5"/>
</g>
<!-- A_PrepareResponse -->
<g id="node4" class="node">
<title>A_PrepareResponse</title>
<path fill="lightgoldenrodyellow" stroke="black" d="M465.75,-39C465.75,-39 375.5,-39 375.5,-39 369.5,-39 363.5,-33 363.5,-27 363.5,-27 363.5,-15 363.5,-15 363.5,-9 369.5,-3 375.5,-3 375.5,-3 465.75,-3 465.75,-3 471.75,-3 477.75,-9 477.75,-15 477.75,-15 477.75,-27 477.75,-27 477.75,-33 471.75,-39 465.75,-39"/>
<text text-anchor="middle" x="420.62" y="-15.57" font-family="Times New Roman,serif" font-size="14.00">PrepareResponse</text>
</g>
<!-- A_ReviewResponse -->
<g id="node7" class="node">
<title>A_ReviewResponse</title>
<path fill="lightgoldenrodyellow" stroke="black" d="M615.5,-73C615.5,-73 526.75,-73 526.75,-73 520.75,-73 514.75,-67 514.75,-61 514.75,-61 514.75,-49 514.75,-49 514.75,-43 520.75,-37 526.75,-37 526.75,-37 615.5,-37 615.5,-37 621.5,-37 627.5,-43 627.5,-49 627.5,-49 627.5,-61 627.5,-61 627.5,-67 621.5,-73 615.5,-73"/>
<text text-anchor="middle" x="571.12" y="-49.58" font-family="Times New Roman,serif" font-size="14.00">ReviewResponse</text>
</g>
<!-- A_PrepareResponse&#45;&gt;A_ReviewResponse -->
<g id="edge4" class="edge">
<title>A_PrepareResponse&#45;&gt;A_ReviewResponse</title>
<path fill="none" stroke="black" d="M478.19,-33.95C486.51,-35.86 495.15,-37.83 503.64,-39.78"/>
<polygon fill="black" stroke="black" points="502.69,-43.15 513.22,-41.97 504.26,-36.33 502.69,-43.15"/>
</g>
<!-- A_InvestigateInquiry&#45;&gt;A_PrepareResponse -->
<g id="edge3" class="edge">
<title>A_InvestigateInquiry&#45;&gt;A_PrepareResponse</title>
<path fill="none" stroke="black" d="M326.99,-21C335.17,-21 343.65,-21 352,-21"/>
<polygon fill="black" stroke="black" points="351.77,-24.5 361.77,-21 351.77,-17.5 351.77,-24.5"/>
</g>
<!-- A_ResubmitResponse -->
<g id="node6" class="node">
<title>A_ResubmitResponse</title>
<path fill="lightgoldenrodyellow" stroke="black" d="M1073.06,-36C1073.06,-36 972.31,-36 972.31,-36 966.31,-36 960.31,-30 960.31,-24 960.31,-24 960.31,-12 960.31,-12 960.31,-6 966.31,0 972.31,0 972.31,0 1073.06,0 1073.06,0 1079.06,0 1085.06,-6 1085.06,-12 1085.06,-12 1085.06,-24 1085.06,-24 1085.06,-30 1079.06,-36 1073.06,-36"/>
<text text-anchor="middle" x="1022.69" y="-12.57" font-family="Times New Roman,serif" font-size="14.00">ResubmitResponse</text>
</g>
<!-- A_ResubmitResponse&#45;&gt;A_PrepareResponse -->
<g id="edge8" class="edge">
<title>A_ResubmitResponse&#45;&gt;A_PrepareResponse</title>
<path fill="none" stroke="black" d="M960.04,-18.31C846.9,-18.87 606.96,-20.07 489.4,-20.66"/>
<polygon fill="black" stroke="black" points="489.57,-17.16 479.59,-20.71 489.61,-24.16 489.57,-17.16"/>
</g>
<!-- XOR_ResponseApproval -->
<g id="node8" class="node">
<title>XOR_ResponseApproval</title>
<polygon fill="gold" stroke="black" points="707.78,-73 664.5,-55 707.78,-37 751.06,-55 707.78,-73"/>
<text text-anchor="middle" x="707.78" y="-49.58" font-family="Times New Roman,serif" font-size="14.00">XOR</text>
</g>
<!-- A_ReviewResponse&#45;&gt;XOR_ResponseApproval -->
<g id="edge5" class="edge">
<title>A_ReviewResponse&#45;&gt;XOR_ResponseApproval</title>
<path fill="none" stroke="black" d="M627.67,-55C635.66,-55 643.87,-55 651.84,-55"/>
<polygon fill="black" stroke="black" points="651.78,-58.5 661.78,-55 651.78,-51.5 651.78,-58.5"/>
</g>
<!-- XOR_ResponseApproval&#45;&gt;End_ApproveResponse -->
<g id="edge7" class="edge">
<title>XOR_ResponseApproval&#45;&gt;End_ApproveResponse</title>
<path fill="none" stroke="black" d="M744.98,-58.01C807.61,-63.21 934.98,-73.8 992.43,-78.57"/>
<polygon fill="black" stroke="black" points="991.81,-82.03 1002.07,-79.37 992.39,-75.05 991.81,-82.03"/>
<text text-anchor="middle" x="855.69" y="-76.45" font-family="Times New Roman,serif" font-size="14.00">if the response is approved</text>
</g>
<!-- XOR_ResponseApproval&#45;&gt;A_ResubmitResponse -->
<g id="edge6" class="edge">
<title>XOR_ResponseApproval&#45;&gt;A_ResubmitResponse</title>
<path fill="none" stroke="black" d="M734.71,-47.74C745.29,-45.02 757.69,-42.13 769.06,-40.25 829.01,-30.34 897.74,-24.64 948.36,-21.5"/>
<polygon fill="black" stroke="black" points="948.56,-25 958.33,-20.91 948.14,-18.01 948.56,-25"/>
<text text-anchor="middle" x="855.69" y="-42.45" font-family="Times New Roman,serif" font-size="14.00">if the response is not approved</text>
</g>
</g>
</svg>
