<?xml version="1.0" encoding="UTF-8" standalone="no"?>
<!DOCTYPE svg PUBLIC "-//W3C//DTD SVG 1.1//EN"
 "http://www.w3.org/Graphics/SVG/1.1/DTD/svg11.dtd">
<!-- Generated by graphviz version 12.0.0 (20240704.0754)
 -->
<!-- Title: BPMN Pages: 1 -->
<svg width="877pt" height="672pt"
 viewBox="0.00 0.00 877.25 672.25" xmlns="http://www.w3.org/2000/svg" xmlns:xlink="http://www.w3.org/1999/xlink">
<g id="graph0" class="graph" transform="scale(1 1) rotate(0) translate(4 668.25)">
<title>BPMN</title>
<polygon fill="white" stroke="none" points="-4,4 -4,-668.25 873.25,-668.25 873.25,4 -4,4"/>
<!-- Start_SubmitPaperwork -->
<g id="node1" class="node">
<title>Start_SubmitPaperwork</title>
<ellipse fill="forestgreen" stroke="forestgreen" stroke-width="2" cx="18" cy="-173.62" rx="18" ry="18"/>
</g>
<!-- A_ReviewDocuments -->
<g id="node3" class="node">
<title>A_ReviewDocuments</title>
<path fill="lightgoldenrodyellow" stroke="black" d="M115,-303.75C115,-303.75 85,-303.75 85,-303.75 79,-303.75 73,-297.75 73,-291.75 73,-291.75 73,-55.5 73,-55.5 73,-49.5 79,-43.5 85,-43.5 85,-43.5 115,-43.5 115,-43.5 121,-43.5 127,-49.5 127,-55.5 127,-55.5 127,-291.75 127,-291.75 127,-297.75 121,-303.75 115,-303.75"/>
<text text-anchor="middle" x="100" y="-270.45" font-family="Times New Roman,serif" font-size="14.00">R</text>
<text text-anchor="middle" x="100" y="-254.7" font-family="Times New Roman,serif" font-size="14.00">e</text>
<text text-anchor="middle" x="100" y="-238.95" font-family="Times New Roman,serif" font-size="14.00">v</text>
<text text-anchor="middle" x="100" y="-223.2" font-family="Times New Roman,serif" font-size="14.00">i</text>
<text text-anchor="middle" x="100" y="-207.45" font-family="Times New Roman,serif" font-size="14.00">e</text>
<text text-anchor="middle" x="100" y="-191.7" font-family="Times New Roman,serif" font-size="14.00">w</text>
<text text-anchor="middle" x="100" y="-175.95" font-family="Times New Roman,serif" font-size="14.00">D</text>
<text text-anchor="middle" x="100" y="-160.2" font-family="Times New Roman,serif" font-size="14.00">o</text>
<text text-anchor="middle" x="100" y="-144.45" font-family="Times New Roman,serif" font-size="14.00">c</text>
<text text-anchor="middle" x="100" y="-128.7" font-family="Times New Roman,serif" font-size="14.00">u</text>
<text text-anchor="middle" x="100" y="-112.95" font-family="Times New Roman,serif" font-size="14.00">m</text>
<text text-anchor="middle" x="100" y="-97.2" font-family="Times New Roman,serif" font-size="14.00">e</text>
<text text-anchor="middle" x="100" y="-81.45" font-family="Times New Roman,serif" font-size="14.00">n</text>
<text text-anchor="middle" x="100" y="-65.7" font-family="Times New Roman,serif" font-size="14.00">t</text>
<text text-anchor="middle" x="100" y="-49.95" font-family="Times New Roman,serif" font-size="14.00">s</text>
</g>
<!-- Start_SubmitPaperwork&#45;&gt;A_ReviewDocuments -->
<g id="edge1" class="edge">
<title>Start_SubmitPaperwork&#45;&gt;A_ReviewDocuments</title>
<path fill="none" stroke="black" d="M36.75,-173.62C44.03,-173.62 52.75,-173.62 61.33,-173.62"/>
<polygon fill="black" stroke="black" points="61.27,-177.13 71.27,-173.63 61.27,-170.13 61.27,-177.13"/>
</g>
<!-- End_AssignDepartment -->
<g id="node2" class="node">
<title>End_AssignDepartment</title>
<ellipse fill="firebrick" stroke="firebrick" stroke-width="3" cx="851.25" cy="-502.62" rx="18" ry="18"/>
</g>
<!-- XOR_ReviewDocuments -->
<g id="node8" class="node">
<title>XOR_ReviewDocuments</title>
<polygon fill="gold" stroke="black" points="191,-225.62 164,-207.62 191,-189.62 218,-207.62 191,-225.62"/>
<text text-anchor="middle" x="191" y="-202.2" font-family="Times New Roman,serif" font-size="14.00">R</text>
</g>
<!-- A_ReviewDocuments&#45;&gt;XOR_ReviewDocuments -->
<g id="edge2" class="edge">
<title>A_ReviewDocuments&#45;&gt;XOR_ReviewDocuments</title>
<path fill="none" stroke="black" d="M127.22,-183.64C138.3,-187.87 151.2,-192.8 162.42,-197.09"/>
<polygon fill="black" stroke="black" points="160.94,-200.27 171.53,-200.57 163.44,-193.73 160.94,-200.27"/>
</g>
<!-- E_AttendOrientation -->
<g id="node4" class="node">
<title>E_AttendOrientation</title>
<path fill="lightgoldenrodyellow" stroke="black" d="M602.25,-648.5C602.25,-648.5 572.25,-648.5 572.25,-648.5 566.25,-648.5 560.25,-642.5 560.25,-636.5 560.25,-636.5 560.25,-368.75 560.25,-368.75 560.25,-362.75 566.25,-356.75 572.25,-356.75 572.25,-356.75 602.25,-356.75 602.25,-356.75 608.25,-356.75 614.25,-362.75 614.25,-368.75 614.25,-368.75 614.25,-636.5 614.25,-636.5 614.25,-642.5 608.25,-648.5 602.25,-648.5"/>
<text text-anchor="middle" x="587.25" y="-615.2" font-family="Times New Roman,serif" font-size="14.00">A</text>
<text text-anchor="middle" x="587.25" y="-599.45" font-family="Times New Roman,serif" font-size="14.00">t</text>
<text text-anchor="middle" x="587.25" y="-583.7" font-family="Times New Roman,serif" font-size="14.00">t</text>
<text text-anchor="middle" x="587.25" y="-567.95" font-family="Times New Roman,serif" font-size="14.00">e</text>
<text text-anchor="middle" x="587.25" y="-552.2" font-family="Times New Roman,serif" font-size="14.00">n</text>
<text text-anchor="middle" x="587.25" y="-536.45" font-family="Times New Roman,serif" font-size="14.00">d</text>
<text text-anchor="middle" x="587.25" y="-520.7" font-family="Times New Roman,serif" font-size="14.00">O</text>
<text text-anchor="middle" x="587.25" y="-504.95" font-family="Times New Roman,serif" font-size="14.00">r</text>
<text text-anchor="middle" x="587.25" y="-489.2" font-family="Times New Roman,serif" font-size="14.00">i</text>
<text text-anchor="middle" x="587.25" y="-473.45" font-family="Times New Roman,serif" font-size="14.00">e</text>
<text text-anchor="middle" x="587.25" y="-457.7" font-family="Times New Roman,serif" font-size="14.00">n</text>
<text text-anchor="middle" x="587.25" y="-441.95" font-family="Times New Roman,serif" font-size="14.00">t</text>
<text text-anchor="middle" x="587.25" y="-426.2" font-family="Times New Roman,serif" font-size="14.00">a</text>
<text text-anchor="middle" x="587.25" y="-410.45" font-family="Times New Roman,serif" font-size="14.00">t</text>
<text text-anchor="middle" x="587.25" y="-394.7" font-family="Times New Roman,serif" font-size="14.00">i</text>
<text text-anchor="middle" x="587.25" y="-378.95" font-family="Times New Roman,serif" font-size="14.00">o</text>
<text text-anchor="middle" x="587.25" y="-363.2" font-family="Times New Roman,serif" font-size="14.00">n</text>
</g>
<!-- XOR_OnboardingComplete -->
<g id="node9" class="node">
<title>XOR_OnboardingComplete</title>
<polygon fill="gold" stroke="black" points="678.25,-520.62 651.25,-502.62 678.25,-484.62 705.25,-502.62 678.25,-520.62"/>
<text text-anchor="middle" x="678.25" y="-497.2" font-family="Times New Roman,serif" font-size="14.00">O</text>
</g>
<!-- E_AttendOrientation&#45;&gt;XOR_OnboardingComplete -->
<g id="edge7" class="edge">
<title>E_AttendOrientation&#45;&gt;XOR_OnboardingComplete</title>
<path fill="none" stroke="black" d="M614.47,-502.62C622.21,-502.62 630.84,-502.62 639.16,-502.62"/>
<polygon fill="black" stroke="black" points="639.09,-506.13 649.09,-502.63 639.09,-499.13 639.09,-506.13"/>
</g>
<!-- A_AssignToDepartment -->
<g id="node5" class="node">
<title>A_AssignToDepartment</title>
<path fill="lightgoldenrodyellow" stroke="black" d="M784.25,-656.38C784.25,-656.38 754.25,-656.38 754.25,-656.38 748.25,-656.38 742.25,-650.38 742.25,-644.38 742.25,-644.38 742.25,-360.88 742.25,-360.88 742.25,-354.88 748.25,-348.88 754.25,-348.88 754.25,-348.88 784.25,-348.88 784.25,-348.88 790.25,-348.88 796.25,-354.88 796.25,-360.88 796.25,-360.88 796.25,-644.38 796.25,-644.38 796.25,-650.38 790.25,-656.38 784.25,-656.38"/>
<text text-anchor="middle" x="769.25" y="-623.08" font-family="Times New Roman,serif" font-size="14.00">A</text>
<text text-anchor="middle" x="769.25" y="-607.33" font-family="Times New Roman,serif" font-size="14.00">s</text>
<text text-anchor="middle" x="769.25" y="-591.58" font-family="Times New Roman,serif" font-size="14.00">s</text>
<text text-anchor="middle" x="769.25" y="-575.83" font-family="Times New Roman,serif" font-size="14.00">i</text>
<text text-anchor="middle" x="769.25" y="-560.08" font-family="Times New Roman,serif" font-size="14.00">g</text>
<text text-anchor="middle" x="769.25" y="-544.33" font-family="Times New Roman,serif" font-size="14.00">n</text>
<text text-anchor="middle" x="769.25" y="-528.58" font-family="Times New Roman,serif" font-size="14.00">T</text>
<text text-anchor="middle" x="769.25" y="-512.83" font-family="Times New Roman,serif" font-size="14.00">o</text>
<text text-anchor="middle" x="769.25" y="-497.07" font-family="Times New Roman,serif" font-size="14.00">D</text>
<text text-anchor="middle" x="769.25" y="-481.32" font-family="Times New Roman,serif" font-size="14.00">e</text>
<text text-anchor="middle" x="769.25" y="-465.57" font-family="Times New Roman,serif" font-size="14.00">p</text>
<text text-anchor="middle" x="769.25" y="-449.82" font-family="Times New Roman,serif" font-size="14.00">a</text>
<text text-anchor="middle" x="769.25" y="-434.07" font-family="Times New Roman,serif" font-size="14.00">r</text>
<text text-anchor="middle" x="769.25" y="-418.32" font-family="Times New Roman,serif" font-size="14.00">t</text>
<text text-anchor="middle" x="769.25" y="-402.57" font-family="Times New Roman,serif" font-size="14.00">m</text>
<text text-anchor="middle" x="769.25" y="-386.82" font-family="Times New Roman,serif" font-size="14.00">e</text>
<text text-anchor="middle" x="769.25" y="-371.07" font-family="Times New Roman,serif" font-size="14.00">n</text>
<text text-anchor="middle" x="769.25" y="-355.32" font-family="Times New Roman,serif" font-size="14.00">t</text>
</g>
<!-- A_AssignToDepartment&#45;&gt;End_AssignDepartment -->
<g id="edge9" class="edge">
<title>A_AssignToDepartment&#45;&gt;End_AssignDepartment</title>
<path fill="none" stroke="black" d="M796.44,-502.62C804.13,-502.62 812.59,-502.62 820.48,-502.62"/>
<polygon fill="black" stroke="black" points="820.34,-506.13 830.34,-502.63 820.34,-499.13 820.34,-506.13"/>
</g>
<!-- A_ScheduleOrientation -->
<g id="node6" class="node">
<title>A_ScheduleOrientation</title>
<path fill="lightgoldenrodyellow" stroke="black" d="M511.25,-664.25C511.25,-664.25 481.25,-664.25 481.25,-664.25 475.25,-664.25 469.25,-658.25 469.25,-652.25 469.25,-652.25 469.25,-353 469.25,-353 469.25,-347 475.25,-341 481.25,-341 481.25,-341 511.25,-341 511.25,-341 517.25,-341 523.25,-347 523.25,-353 523.25,-353 523.25,-652.25 523.25,-652.25 523.25,-658.25 517.25,-664.25 511.25,-664.25"/>
<text text-anchor="middle" x="496.25" y="-630.95" font-family="Times New Roman,serif" font-size="14.00">S</text>
<text text-anchor="middle" x="496.25" y="-615.2" font-family="Times New Roman,serif" font-size="14.00">c</text>
<text text-anchor="middle" x="496.25" y="-599.45" font-family="Times New Roman,serif" font-size="14.00">h</text>
<text text-anchor="middle" x="496.25" y="-583.7" font-family="Times New Roman,serif" font-size="14.00">e</text>
<text text-anchor="middle" x="496.25" y="-567.95" font-family="Times New Roman,serif" font-size="14.00">d</text>
<text text-anchor="middle" x="496.25" y="-552.2" font-family="Times New Roman,serif" font-size="14.00">u</text>
<text text-anchor="middle" x="496.25" y="-536.45" font-family="Times New Roman,serif" font-size="14.00">l</text>
<text text-anchor="middle" x="496.25" y="-520.7" font-family="Times New Roman,serif" font-size="14.00">e</text>
<text text-anchor="middle" x="496.25" y="-504.95" font-family="Times New Roman,serif" font-size="14.00">O</text>
<text text-anchor="middle" x="496.25" y="-489.2" font-family="Times New Roman,serif" font-size="14.00">r</text>
<text text-anchor="middle" x="496.25" y="-473.45" font-family="Times New Roman,serif" font-size="14.00">i</text>
<text text-anchor="middle" x="496.25" y="-457.7" font-family="Times New Roman,serif" font-size="14.00">e</text>
<text text-anchor="middle" x="496.25" y="-441.95" font-family="Times New Roman,serif" font-size="14.00">n</text>
<text text-anchor="middle" x="496.25" y="-426.2" font-family="Times New Roman,serif" font-size="14.00">t</text>
<text text-anchor="middle" x="496.25" y="-410.45" font-family="Times New Roman,serif" font-size="14.00">a</text>
<text text-anchor="middle" x="496.25" y="-394.7" font-family="Times New Roman,serif" font-size="14.00">t</text>
<text text-anchor="middle" x="496.25" y="-378.95" font-family="Times New Roman,serif" font-size="14.00">i</text>
<text text-anchor="middle" x="496.25" y="-363.2" font-family="Times New Roman,serif" font-size="14.00">o</text>
<text text-anchor="middle" x="496.25" y="-347.45" font-family="Times New Roman,serif" font-size="14.00">n</text>
</g>
<!-- A_ScheduleOrientation&#45;&gt;E_AttendOrientation -->
<g id="edge6" class="edge">
<title>A_ScheduleOrientation&#45;&gt;E_AttendOrientation</title>
<path fill="none" stroke="black" d="M523.47,-502.62C531.37,-502.62 540.19,-502.62 548.68,-502.62"/>
<polygon fill="black" stroke="black" points="548.39,-506.13 558.39,-502.63 548.39,-499.13 548.39,-506.13"/>
</g>
<!-- A_ReturnForCorrection -->
<g id="node7" class="node">
<title>A_ReturnForCorrection</title>
<path fill="lightgoldenrodyellow" stroke="black" d="M511.25,-323.25C511.25,-323.25 481.25,-323.25 481.25,-323.25 475.25,-323.25 469.25,-317.25 469.25,-311.25 469.25,-311.25 469.25,-12 469.25,-12 469.25,-6 475.25,0 481.25,0 481.25,0 511.25,0 511.25,0 517.25,0 523.25,-6 523.25,-12 523.25,-12 523.25,-311.25 523.25,-311.25 523.25,-317.25 517.25,-323.25 511.25,-323.25"/>
<text text-anchor="middle" x="496.25" y="-289.95" font-family="Times New Roman,serif" font-size="14.00">R</text>
<text text-anchor="middle" x="496.25" y="-274.2" font-family="Times New Roman,serif" font-size="14.00">e</text>
<text text-anchor="middle" x="496.25" y="-258.45" font-family="Times New Roman,serif" font-size="14.00">t</text>
<text text-anchor="middle" x="496.25" y="-242.7" font-family="Times New Roman,serif" font-size="14.00">u</text>
<text text-anchor="middle" x="496.25" y="-226.95" font-family="Times New Roman,serif" font-size="14.00">r</text>
<text text-anchor="middle" x="496.25" y="-211.2" font-family="Times New Roman,serif" font-size="14.00">n</text>
<text text-anchor="middle" x="496.25" y="-195.45" font-family="Times New Roman,serif" font-size="14.00">F</text>
<text text-anchor="middle" x="496.25" y="-179.7" font-family="Times New Roman,serif" font-size="14.00">o</text>
<text text-anchor="middle" x="496.25" y="-163.95" font-family="Times New Roman,serif" font-size="14.00">r</text>
<text text-anchor="middle" x="496.25" y="-148.2" font-family="Times New Roman,serif" font-size="14.00">C</text>
<text text-anchor="middle" x="496.25" y="-132.45" font-family="Times New Roman,serif" font-size="14.00">o</text>
<text text-anchor="middle" x="496.25" y="-116.7" font-family="Times New Roman,serif" font-size="14.00">r</text>
<text text-anchor="middle" x="496.25" y="-100.95" font-family="Times New Roman,serif" font-size="14.00">r</text>
<text text-anchor="middle" x="496.25" y="-85.2" font-family="Times New Roman,serif" font-size="14.00">e</text>
<text text-anchor="middle" x="496.25" y="-69.45" font-family="Times New Roman,serif" font-size="14.00">c</text>
<text text-anchor="middle" x="496.25" y="-53.7" font-family="Times New Roman,serif" font-size="14.00">t</text>
<text text-anchor="middle" x="496.25" y="-37.95" font-family="Times New Roman,serif" font-size="14.00">i</text>
<text text-anchor="middle" x="496.25" y="-22.2" font-family="Times New Roman,serif" font-size="14.00">o</text>
<text text-anchor="middle" x="496.25" y="-6.45" font-family="Times New Roman,serif" font-size="14.00">n</text>
</g>
<!-- A_ReturnForCorrection&#45;&gt;A_ReviewDocuments -->
<g id="edge5" class="edge">
<title>A_ReturnForCorrection&#45;&gt;A_ReviewDocuments</title>
<path fill="none" stroke="black" d="M468.89,-162.43C400.7,-164.5 218.33,-170.05 138.87,-172.47"/>
<polygon fill="black" stroke="black" points="138.88,-168.97 128.99,-172.77 139.09,-175.97 138.88,-168.97"/>
</g>
<!-- XOR_ReviewDocuments&#45;&gt;A_ScheduleOrientation -->
<g id="edge4" class="edge">
<title>XOR_ReviewDocuments&#45;&gt;A_ScheduleOrientation</title>
<path fill="none" stroke="black" d="M202.79,-218.12C244.06,-258.27 392.93,-403.09 460.93,-469.24"/>
<polygon fill="black" stroke="black" points="458.12,-471.39 467.73,-475.85 463,-466.37 458.12,-471.39"/>
<text text-anchor="middle" x="343.62" y="-462.07" font-family="Times New Roman,serif" font-size="14.00">if documents are complete and correct</text>
</g>
<!-- XOR_ReviewDocuments&#45;&gt;A_ReturnForCorrection -->
<g id="edge3" class="edge">
<title>XOR_ReviewDocuments&#45;&gt;A_ReturnForCorrection</title>
<path fill="none" stroke="black" d="M216.56,-206.12C262.89,-202.93 366.19,-194.24 451.25,-175.62 453.42,-175.15 455.64,-174.61 457.87,-174.03"/>
<polygon fill="black" stroke="black" points="458.83,-177.4 467.49,-171.29 456.91,-170.67 458.83,-177.4"/>
<text text-anchor="middle" x="343.62" y="-206.07" font-family="Times New Roman,serif" font-size="14.00">if documents are missing or incorrect</text>
</g>
<!-- XOR_OnboardingComplete&#45;&gt;A_AssignToDepartment -->
<g id="edge8" class="edge">
<title>XOR_OnboardingComplete&#45;&gt;A_AssignToDepartment</title>
<path fill="none" stroke="black" d="M705.95,-502.62C713.68,-502.62 722.26,-502.62 730.53,-502.62"/>
<polygon fill="black" stroke="black" points="730.36,-506.13 740.36,-502.63 730.36,-499.13 730.36,-506.13"/>
</g>
</g>
</svg>
