<?xml version="1.0" encoding="UTF-8" standalone="no"?>
<!DOCTYPE svg PUBLIC "-//W3C//DTD SVG 1.1//EN"
 "http://www.w3.org/Graphics/SVG/1.1/DTD/svg11.dtd">
<!-- Generated by graphviz version 12.0.0 (20240704.0754)
 -->
<!-- Title: BPMN Pages: 1 -->
<svg width="1118pt" height="98pt"
 viewBox="0.00 0.00 1118.22 98.00" xmlns="http://www.w3.org/2000/svg" xmlns:xlink="http://www.w3.org/1999/xlink">
<g id="graph0" class="graph" transform="scale(1 1) rotate(0) translate(4 94)">
<title>BPMN</title>
<polygon fill="white" stroke="none" points="-4,4 -4,-94 1114.22,-94 1114.22,4 -4,4"/>
<!-- Start_RegisterInquiry -->
<g id="node1" class="node">
<title>Start_RegisterInquiry</title>
<ellipse fill="forestgreen" stroke="forestgreen" stroke-width="2" cx="18" cy="-44" rx="18" ry="18"/>
</g>
<!-- A_RegisterInquiry -->
<g id="node3" class="node">
<title>A_RegisterInquiry</title>
<path fill="lightgoldenrodyellow" stroke="black" d="M162.5,-62C162.5,-62 85,-62 85,-62 79,-62 73,-56 73,-50 73,-50 73,-38 73,-38 73,-32 79,-26 85,-26 85,-26 162.5,-26 162.5,-26 168.5,-26 174.5,-32 174.5,-38 174.5,-38 174.5,-50 174.5,-50 174.5,-56 168.5,-62 162.5,-62"/>
<text text-anchor="middle" x="123.75" y="-38.58" font-family="Times New Roman,serif" font-size="14.00">RegisterInquiry</text>
</g>
<!-- Start_RegisterInquiry&#45;&gt;A_RegisterInquiry -->
<g id="edge1" class="edge">
<title>Start_RegisterInquiry&#45;&gt;A_RegisterInquiry</title>
<path fill="none" stroke="black" d="M36.6,-44C43.75,-44 52.48,-44 61.6,-44"/>
<polygon fill="black" stroke="black" points="61.32,-47.5 71.32,-44 61.32,-40.5 61.32,-47.5"/>
</g>
<!-- End_ApproveResponse -->
<g id="node2" class="node">
<title>End_ApproveResponse</title>
<ellipse fill="firebrick" stroke="firebrick" stroke-width="3" cx="1092.22" cy="-44" rx="18" ry="18"/>
</g>
<!-- A_InvestigateInquiry -->
<g id="node7" class="node">
<title>A_InvestigateInquiry</title>
<path fill="lightgoldenrodyellow" stroke="black" d="M314.5,-62C314.5,-62 223.5,-62 223.5,-62 217.5,-62 211.5,-56 211.5,-50 211.5,-50 211.5,-38 211.5,-38 211.5,-32 217.5,-26 223.5,-26 223.5,-26 314.5,-26 314.5,-26 320.5,-26 326.5,-32 326.5,-38 326.5,-38 326.5,-50 326.5,-50 326.5,-56 320.5,-62 314.5,-62"/>
<text text-anchor="middle" x="269" y="-38.58" font-family="Times New Roman,serif" font-size="14.00">InvestigateInquiry</text>
</g>
<!-- A_RegisterInquiry&#45;&gt;A_InvestigateInquiry -->
<g id="edge2" class="edge">
<title>A_RegisterInquiry&#45;&gt;A_InvestigateInquiry</title>
<path fill="none" stroke="black" d="M174.85,-44C182.95,-44 191.45,-44 199.89,-44"/>
<polygon fill="black" stroke="black" points="199.8,-47.5 209.8,-44 199.8,-40.5 199.8,-47.5"/>
</g>
<!-- A_RePrepareResponse -->
<g id="node4" class="node">
<title>A_RePrepareResponse</title>
<path fill="lightgoldenrodyellow" stroke="black" d="M753.31,-90C753.31,-90 647.31,-90 647.31,-90 641.31,-90 635.31,-84 635.31,-78 635.31,-78 635.31,-66 635.31,-66 635.31,-60 641.31,-54 647.31,-54 647.31,-54 753.31,-54 753.31,-54 759.31,-54 765.31,-60 765.31,-66 765.31,-66 765.31,-78 765.31,-78 765.31,-84 759.31,-90 753.31,-90"/>
<text text-anchor="middle" x="700.31" y="-66.58" font-family="Times New Roman,serif" font-size="14.00">RePrepareResponse</text>
</g>
<!-- A_ReviewResponse -->
<g id="node6" class="node">
<title>A_ReviewResponse</title>
<path fill="lightgoldenrodyellow" stroke="black" d="M903.06,-62C903.06,-62 814.31,-62 814.31,-62 808.31,-62 802.31,-56 802.31,-50 802.31,-50 802.31,-38 802.31,-38 802.31,-32 808.31,-26 814.31,-26 814.31,-26 903.06,-26 903.06,-26 909.06,-26 915.06,-32 915.06,-38 915.06,-38 915.06,-50 915.06,-50 915.06,-56 909.06,-62 903.06,-62"/>
<text text-anchor="middle" x="858.69" y="-38.58" font-family="Times New Roman,serif" font-size="14.00">ReviewResponse</text>
</g>
<!-- A_RePrepareResponse&#45;&gt;A_ReviewResponse -->
<g id="edge7" class="edge">
<title>A_RePrepareResponse&#45;&gt;A_ReviewResponse</title>
<path fill="none" stroke="black" d="M765.37,-60.53C773.72,-59.04 782.29,-57.5 790.69,-56"/>
<polygon fill="black" stroke="black" points="791.28,-59.45 800.5,-54.24 790.04,-52.56 791.28,-59.45"/>
</g>
<!-- A_PrepareResponse -->
<g id="node5" class="node">
<title>A_PrepareResponse</title>
<path fill="lightgoldenrodyellow" stroke="black" d="M745.44,-36C745.44,-36 655.19,-36 655.19,-36 649.19,-36 643.19,-30 643.19,-24 643.19,-24 643.19,-12 643.19,-12 643.19,-6 649.19,0 655.19,0 655.19,0 745.44,0 745.44,0 751.44,0 757.44,-6 757.44,-12 757.44,-12 757.44,-24 757.44,-24 757.44,-30 751.44,-36 745.44,-36"/>
<text text-anchor="middle" x="700.31" y="-12.57" font-family="Times New Roman,serif" font-size="14.00">PrepareResponse</text>
</g>
<!-- A_PrepareResponse&#45;&gt;A_ReviewResponse -->
<g id="edge6" class="edge">
<title>A_PrepareResponse&#45;&gt;A_ReviewResponse</title>
<path fill="none" stroke="black" d="M757.77,-27.39C768.42,-29.16 779.65,-31.02 790.59,-32.84"/>
<polygon fill="black" stroke="black" points="789.91,-36.28 800.35,-34.47 791.06,-29.37 789.91,-36.28"/>
</g>
<!-- AND_ApproveResponse -->
<g id="node9" class="node">
<title>AND_ApproveResponse</title>
<polygon fill="gold" stroke="black" points="994.64,-62 952.06,-44 994.64,-26 1037.22,-44 994.64,-62"/>
<text text-anchor="middle" x="994.64" y="-38.58" font-family="Times New Roman,serif" font-size="14.00">AND</text>
</g>
<!-- A_ReviewResponse&#45;&gt;AND_ApproveResponse -->
<g id="edge8" class="edge">
<title>A_ReviewResponse&#45;&gt;AND_ApproveResponse</title>
<path fill="none" stroke="black" d="M915.33,-44C923.35,-44 931.59,-44 939.58,-44"/>
<polygon fill="black" stroke="black" points="939.52,-47.5 949.52,-44 939.52,-40.5 939.52,-47.5"/>
</g>
<!-- XOR_PrepareResponse -->
<g id="node8" class="node">
<title>XOR_PrepareResponse</title>
<polygon fill="gold" stroke="black" points="406.78,-62 363.5,-44 406.78,-26 450.06,-44 406.78,-62"/>
<text text-anchor="middle" x="406.78" y="-38.58" font-family="Times New Roman,serif" font-size="14.00">XOR</text>
</g>
<!-- A_InvestigateInquiry&#45;&gt;XOR_PrepareResponse -->
<g id="edge3" class="edge">
<title>A_InvestigateInquiry&#45;&gt;XOR_PrepareResponse</title>
<path fill="none" stroke="black" d="M326.8,-44C334.8,-44 343.02,-44 350.99,-44"/>
<polygon fill="black" stroke="black" points="350.92,-47.5 360.92,-44 350.92,-40.5 350.92,-47.5"/>
</g>
<!-- XOR_PrepareResponse&#45;&gt;A_RePrepareResponse -->
<g id="edge5" class="edge">
<title>XOR_PrepareResponse&#45;&gt;A_RePrepareResponse</title>
<path fill="none" stroke="black" d="M442.95,-47.38C487.46,-51.65 565.34,-59.13 623.62,-64.73"/>
<polygon fill="black" stroke="black" points="623.2,-68.21 633.49,-65.68 623.87,-61.24 623.2,-68.21"/>
<text text-anchor="middle" x="542.69" y="-65.45" font-family="Times New Roman,serif" font-size="14.00">response needs revision</text>
</g>
<!-- XOR_PrepareResponse&#45;&gt;A_PrepareResponse -->
<g id="edge4" class="edge">
<title>XOR_PrepareResponse&#45;&gt;A_PrepareResponse</title>
<path fill="none" stroke="black" d="M434.31,-36.92C444.75,-34.4 456.9,-31.81 468.06,-30.25 522.76,-22.62 585.34,-19.65 631.59,-18.54"/>
<polygon fill="black" stroke="black" points="631.55,-22.04 641.47,-18.33 631.4,-15.04 631.55,-22.04"/>
<text text-anchor="middle" x="542.69" y="-32.45" font-family="Times New Roman,serif" font-size="14.00">initial response preparation</text>
</g>
<!-- AND_ApproveResponse&#45;&gt;End_ApproveResponse -->
<g id="edge9" class="edge">
<title>AND_ApproveResponse&#45;&gt;End_ApproveResponse</title>
<path fill="none" stroke="black" d="M1038.4,-44C1046.17,-44 1054.11,-44 1061.41,-44"/>
<polygon fill="black" stroke="black" points="1061.41,-47.5 1071.41,-44 1061.41,-40.5 1061.41,-47.5"/>
</g>
</g>
</svg>
