<?xml version="1.0" encoding="UTF-8" standalone="no"?>
<!DOCTYPE svg PUBLIC "-//W3C//DTD SVG 1.1//EN"
 "http://www.w3.org/Graphics/SVG/1.1/DTD/svg11.dtd">
<!-- Generated by graphviz version 12.0.0 (20240704.0754)
 -->
<!-- Title: BPMN Pages: 1 -->
<svg width="1178pt" height="121pt"
 viewBox="0.00 0.00 1177.81 121.00" xmlns="http://www.w3.org/2000/svg" xmlns:xlink="http://www.w3.org/1999/xlink">
<g id="graph0" class="graph" transform="scale(1 1) rotate(0) translate(4 117)">
<title>BPMN</title>
<polygon fill="white" stroke="none" points="-4,4 -4,-117 1173.81,-117 1173.81,4 -4,4"/>
<!-- Start_ReceiveMinisterialInquiry -->
<g id="node1" class="node">
<title>Start_ReceiveMinisterialInquiry</title>
<ellipse fill="forestgreen" stroke="forestgreen" stroke-width="2" cx="18" cy="-41" rx="18" ry="18"/>
</g>
<!-- A_RegisterInquiry -->
<g id="node4" class="node">
<title>A_RegisterInquiry</title>
<path fill="lightgoldenrodyellow" stroke="black" d="M162.5,-59C162.5,-59 85,-59 85,-59 79,-59 73,-53 73,-47 73,-47 73,-35 73,-35 73,-29 79,-23 85,-23 85,-23 162.5,-23 162.5,-23 168.5,-23 174.5,-29 174.5,-35 174.5,-35 174.5,-47 174.5,-47 174.5,-53 168.5,-59 162.5,-59"/>
<text text-anchor="middle" x="123.75" y="-35.58" font-family="Times New Roman,serif" font-size="14.00">RegisterInquiry</text>
</g>
<!-- Start_ReceiveMinisterialInquiry&#45;&gt;A_RegisterInquiry -->
<g id="edge1" class="edge">
<title>Start_ReceiveMinisterialInquiry&#45;&gt;A_RegisterInquiry</title>
<path fill="none" stroke="black" d="M36.6,-41C43.75,-41 52.48,-41 61.6,-41"/>
<polygon fill="black" stroke="black" points="61.32,-44.5 71.32,-41 61.32,-37.5 61.32,-44.5"/>
</g>
<!-- End_ApproveResponse -->
<g id="node2" class="node">
<title>End_ApproveResponse</title>
<ellipse fill="firebrick" stroke="firebrick" stroke-width="3" cx="1104.81" cy="-95" rx="18" ry="18"/>
</g>
<!-- A_InvestigateInquiry -->
<g id="node3" class="node">
<title>A_InvestigateInquiry</title>
<path fill="lightgoldenrodyellow" stroke="black" d="M314.5,-59C314.5,-59 223.5,-59 223.5,-59 217.5,-59 211.5,-53 211.5,-47 211.5,-47 211.5,-35 211.5,-35 211.5,-29 217.5,-23 223.5,-23 223.5,-23 314.5,-23 314.5,-23 320.5,-23 326.5,-29 326.5,-35 326.5,-35 326.5,-47 326.5,-47 326.5,-53 320.5,-59 314.5,-59"/>
<text text-anchor="middle" x="269" y="-35.58" font-family="Times New Roman,serif" font-size="14.00">InvestigateInquiry</text>
</g>
<!-- A_PrepareResponse -->
<g id="node6" class="node">
<title>A_PrepareResponse</title>
<path fill="lightgoldenrodyellow" stroke="black" d="M465.75,-59C465.75,-59 375.5,-59 375.5,-59 369.5,-59 363.5,-53 363.5,-47 363.5,-47 363.5,-35 363.5,-35 363.5,-29 369.5,-23 375.5,-23 375.5,-23 465.75,-23 465.75,-23 471.75,-23 477.75,-29 477.75,-35 477.75,-35 477.75,-47 477.75,-47 477.75,-53 471.75,-59 465.75,-59"/>
<text text-anchor="middle" x="420.62" y="-35.58" font-family="Times New Roman,serif" font-size="14.00">PrepareResponse</text>
</g>
<!-- A_InvestigateInquiry&#45;&gt;A_PrepareResponse -->
<g id="edge3" class="edge">
<title>A_InvestigateInquiry&#45;&gt;A_PrepareResponse</title>
<path fill="none" stroke="black" d="M326.99,-41C335.17,-41 343.65,-41 352,-41"/>
<polygon fill="black" stroke="black" points="351.77,-44.5 361.77,-41 351.77,-37.5 351.77,-44.5"/>
</g>
<!-- A_RegisterInquiry&#45;&gt;A_InvestigateInquiry -->
<g id="edge2" class="edge">
<title>A_RegisterInquiry&#45;&gt;A_InvestigateInquiry</title>
<path fill="none" stroke="black" d="M174.85,-41C182.95,-41 191.45,-41 199.89,-41"/>
<polygon fill="black" stroke="black" points="199.8,-44.5 209.8,-41 199.8,-37.5 199.8,-44.5"/>
</g>
<!-- A_ReviewResponse -->
<g id="node5" class="node">
<title>A_ReviewResponse</title>
<path fill="lightgoldenrodyellow" stroke="black" d="M615.5,-59C615.5,-59 526.75,-59 526.75,-59 520.75,-59 514.75,-53 514.75,-47 514.75,-47 514.75,-35 514.75,-35 514.75,-29 520.75,-23 526.75,-23 526.75,-23 615.5,-23 615.5,-23 621.5,-23 627.5,-29 627.5,-35 627.5,-35 627.5,-47 627.5,-47 627.5,-53 621.5,-59 615.5,-59"/>
<text text-anchor="middle" x="571.12" y="-35.58" font-family="Times New Roman,serif" font-size="14.00">ReviewResponse</text>
</g>
<!-- XOR_ResponseApproval -->
<g id="node8" class="node">
<title>XOR_ResponseApproval</title>
<polygon fill="gold" stroke="black" points="707.78,-113 664.5,-95 707.78,-77 751.06,-95 707.78,-113"/>
<text text-anchor="middle" x="707.78" y="-89.58" font-family="Times New Roman,serif" font-size="14.00">XOR</text>
</g>
<!-- A_ReviewResponse&#45;&gt;XOR_ResponseApproval -->
<g id="edge5" class="edge">
<title>A_ReviewResponse&#45;&gt;XOR_ResponseApproval</title>
<path fill="none" stroke="black" d="M618.09,-59.43C636.59,-66.85 657.49,-75.23 674.35,-82"/>
<polygon fill="black" stroke="black" points="672.8,-85.14 683.38,-85.62 675.4,-78.65 672.8,-85.14"/>
</g>
<!-- XOR_ReviewCycle -->
<g id="node9" class="node">
<title>XOR_ReviewCycle</title>
<polygon fill="gold" stroke="black" points="707.78,-59 664.5,-41 707.78,-23 751.06,-41 707.78,-59"/>
<text text-anchor="middle" x="707.78" y="-35.58" font-family="Times New Roman,serif" font-size="14.00">XOR</text>
</g>
<!-- A_ReviewResponse&#45;&gt;XOR_ReviewCycle -->
<g id="edge9" class="edge">
<title>A_ReviewResponse&#45;&gt;XOR_ReviewCycle</title>
<path fill="none" stroke="black" d="M627.67,-34.34C640.39,-34.14 653.68,-34.27 665.66,-34.73"/>
<polygon fill="black" stroke="black" points="665.46,-38.22 675.62,-35.22 665.81,-31.23 665.46,-38.22"/>
</g>
<!-- A_PrepareResponse&#45;&gt;A_ReviewResponse -->
<g id="edge4" class="edge">
<title>A_PrepareResponse&#45;&gt;A_ReviewResponse</title>
<path fill="none" stroke="black" d="M478.19,-41C486.42,-41 494.95,-41 503.36,-41"/>
<polygon fill="black" stroke="black" points="503.19,-44.5 513.19,-41 503.19,-37.5 503.19,-44.5"/>
</g>
<!-- A_RePrepareResponse -->
<g id="node7" class="node">
<title>A_RePrepareResponse</title>
<path fill="lightgoldenrodyellow" stroke="black" d="M1157.81,-36C1157.81,-36 1051.81,-36 1051.81,-36 1045.81,-36 1039.81,-30 1039.81,-24 1039.81,-24 1039.81,-12 1039.81,-12 1039.81,-6 1045.81,0 1051.81,0 1051.81,0 1157.81,0 1157.81,0 1163.81,0 1169.81,-6 1169.81,-12 1169.81,-12 1169.81,-24 1169.81,-24 1169.81,-30 1163.81,-36 1157.81,-36"/>
<text text-anchor="middle" x="1104.81" y="-12.57" font-family="Times New Roman,serif" font-size="14.00">RePrepareResponse</text>
</g>
<!-- A_RePrepareResponse&#45;&gt;A_ReviewResponse -->
<g id="edge8" class="edge">
<title>A_RePrepareResponse&#45;&gt;A_ReviewResponse</title>
<path fill="none" stroke="black" d="M1039.39,-11.37C953.41,-3.9 796.63,4.91 664.5,-14 655.45,-15.3 646.04,-17.27 636.85,-19.58"/>
<polygon fill="black" stroke="black" points="636,-16.18 627.24,-22.14 637.8,-22.95 636,-16.18"/>
</g>
<!-- XOR_ResponseApproval&#45;&gt;End_ApproveResponse -->
<g id="edge7" class="edge">
<title>XOR_ResponseApproval&#45;&gt;End_ApproveResponse</title>
<path fill="none" stroke="black" d="M752.19,-95C833.11,-95 1005.07,-95 1074.16,-95"/>
<polygon fill="black" stroke="black" points="1073.94,-98.5 1083.94,-95 1073.94,-91.5 1073.94,-98.5"/>
<text text-anchor="middle" x="895.44" y="-97.45" font-family="Times New Roman,serif" font-size="14.00">if the response is approved</text>
</g>
<!-- XOR_ResponseApproval&#45;&gt;A_RePrepareResponse -->
<g id="edge6" class="edge">
<title>XOR_ResponseApproval&#45;&gt;A_RePrepareResponse</title>
<path fill="none" stroke="black" d="M731.74,-86.6C742.89,-82.74 756.56,-78.35 769.06,-75.25 857.02,-53.45 960.02,-37.19 1028.3,-27.68"/>
<polygon fill="black" stroke="black" points="1028.44,-31.19 1037.87,-26.36 1027.49,-24.25 1028.44,-31.19"/>
<text text-anchor="middle" x="895.44" y="-77.45" font-family="Times New Roman,serif" font-size="14.00">if the registrar does not approve the response</text>
</g>
<!-- XOR_ReviewCycle&#45;&gt;A_ReviewResponse -->
<g id="edge10" class="edge">
<title>XOR_ReviewCycle&#45;&gt;A_ReviewResponse</title>
<path fill="none" stroke="black" d="M677.13,-46.71C665.78,-47.41 652.33,-47.76 638.9,-47.75"/>
<polygon fill="black" stroke="black" points="639.21,-44.25 629.19,-47.67 639.16,-51.25 639.21,-44.25"/>
</g>
</g>
</svg>
