<?xml version="1.0" encoding="UTF-8" standalone="no"?>
<!DOCTYPE svg PUBLIC "-//W3C//DTD SVG 1.1//EN"
 "http://www.w3.org/Graphics/SVG/1.1/DTD/svg11.dtd">
<!-- Generated by graphviz version 12.0.0 (20240704.0754)
 -->
<!-- Title: BPMN Pages: 1 -->
<svg width="1890pt" height="78pt"
 viewBox="0.00 0.00 1890.38 78.00" xmlns="http://www.w3.org/2000/svg" xmlns:xlink="http://www.w3.org/1999/xlink">
<g id="graph0" class="graph" transform="scale(1 1) rotate(0) translate(4 74)">
<title>BPMN</title>
<polygon fill="white" stroke="none" points="-4,4 -4,-74 1886.38,-74 1886.38,4 -4,4"/>
<!-- Start_ShippingGoods -->
<g id="node1" class="node">
<title>Start_ShippingGoods</title>
<ellipse fill="forestgreen" stroke="forestgreen" stroke-width="2" cx="18" cy="-22" rx="18" ry="18"/>
</g>
<!-- A_ClarifyShippingMethod -->
<g id="node5" class="node">
<title>A_ClarifyShippingMethod</title>
<path fill="lightgoldenrodyellow" stroke="black" d="M207.5,-40C207.5,-40 85,-40 85,-40 79,-40 73,-34 73,-28 73,-28 73,-16 73,-16 73,-10 79,-4 85,-4 85,-4 207.5,-4 207.5,-4 213.5,-4 219.5,-10 219.5,-16 219.5,-16 219.5,-28 219.5,-28 219.5,-34 213.5,-40 207.5,-40"/>
<text text-anchor="middle" x="146.25" y="-16.58" font-family="Times New Roman,serif" font-size="14.00">ClarifyShippingMethod</text>
</g>
<!-- Start_ShippingGoods&#45;&gt;A_ClarifyShippingMethod -->
<g id="edge1" class="edge">
<title>Start_ShippingGoods&#45;&gt;A_ClarifyShippingMethod</title>
<path fill="none" stroke="black" d="M36.82,-22C43.73,-22 52.17,-22 61.26,-22"/>
<polygon fill="black" stroke="black" points="61.1,-25.5 71.1,-22 61.1,-18.5 61.1,-25.5"/>
</g>
<!-- End_PrepareForPickup -->
<g id="node2" class="node">
<title>End_PrepareForPickup</title>
<ellipse fill="firebrick" stroke="firebrick" stroke-width="3" cx="1864.38" cy="-18" rx="18" ry="18"/>
</g>
<!-- A_BeginPackagingGoods -->
<g id="node3" class="node">
<title>A_BeginPackagingGoods</title>
<path fill="lightgoldenrodyellow" stroke="black" d="M1479.81,-36C1479.81,-36 1360.31,-36 1360.31,-36 1354.31,-36 1348.31,-30 1348.31,-24 1348.31,-24 1348.31,-12 1348.31,-12 1348.31,-6 1354.31,0 1360.31,0 1360.31,0 1479.81,0 1479.81,0 1485.81,0 1491.81,-6 1491.81,-12 1491.81,-12 1491.81,-24 1491.81,-24 1491.81,-30 1485.81,-36 1479.81,-36"/>
<text text-anchor="middle" x="1420.06" y="-12.58" font-family="Times New Roman,serif" font-size="14.00">BeginPackagingGoods</text>
</g>
<!-- XOR_ShippingComplete -->
<g id="node10" class="node">
<title>XOR_ShippingComplete</title>
<polygon fill="gold" stroke="black" points="1572.1,-36 1528.81,-18 1572.1,0 1615.38,-18 1572.1,-36"/>
<text text-anchor="middle" x="1572.1" y="-12.58" font-family="Times New Roman,serif" font-size="14.00">XOR</text>
</g>
<!-- A_BeginPackagingGoods&#45;&gt;XOR_ShippingComplete -->
<g id="edge9" class="edge">
<title>A_BeginPackagingGoods&#45;&gt;XOR_ShippingComplete</title>
<path fill="none" stroke="black" d="M1492.13,-18C1500.27,-18 1508.47,-18 1516.35,-18"/>
<polygon fill="black" stroke="black" points="1516.11,-21.5 1526.11,-18 1516.11,-14.5 1516.11,-21.5"/>
</g>
<!-- A_ArrangeParcelInsurance -->
<g id="node4" class="node">
<title>A_ArrangeParcelInsurance</title>
<path fill="lightgoldenrodyellow" stroke="black" d="M1299.31,-36C1299.31,-36 1174.56,-36 1174.56,-36 1168.56,-36 1162.56,-30 1162.56,-24 1162.56,-24 1162.56,-12 1162.56,-12 1162.56,-6 1168.56,0 1174.56,0 1174.56,0 1299.31,0 1299.31,0 1305.31,0 1311.31,-6 1311.31,-12 1311.31,-12 1311.31,-24 1311.31,-24 1311.31,-30 1305.31,-36 1299.31,-36"/>
<text text-anchor="middle" x="1236.94" y="-12.58" font-family="Times New Roman,serif" font-size="14.00">ArrangeParcelInsurance</text>
</g>
<!-- A_ArrangeParcelInsurance&#45;&gt;A_BeginPackagingGoods -->
<g id="edge8" class="edge">
<title>A_ArrangeParcelInsurance&#45;&gt;A_BeginPackagingGoods</title>
<path fill="none" stroke="black" d="M1311.61,-18C1319.89,-18 1328.37,-18 1336.75,-18"/>
<polygon fill="black" stroke="black" points="1336.58,-21.5 1346.58,-18 1336.58,-14.5 1336.58,-21.5"/>
</g>
<!-- XOR_ShippingMethod -->
<g id="node11" class="node">
<title>XOR_ShippingMethod</title>
<polygon fill="gold" stroke="black" points="299.78,-40 256.5,-22 299.78,-4 343.06,-22 299.78,-40"/>
<text text-anchor="middle" x="299.78" y="-16.58" font-family="Times New Roman,serif" font-size="14.00">XOR</text>
</g>
<!-- A_ClarifyShippingMethod&#45;&gt;XOR_ShippingMethod -->
<g id="edge2" class="edge">
<title>A_ClarifyShippingMethod&#45;&gt;XOR_ShippingMethod</title>
<path fill="none" stroke="black" d="M219.91,-22C228.07,-22 236.29,-22 244.17,-22"/>
<polygon fill="black" stroke="black" points="243.92,-25.5 253.92,-22 243.92,-18.5 243.92,-25.5"/>
</g>
<!-- A_InviteLogisticsCompanies -->
<g id="node6" class="node">
<title>A_InviteLogisticsCompanies</title>
<path fill="lightgoldenrodyellow" stroke="black" d="M643.31,-70C643.31,-70 506.56,-70 506.56,-70 500.56,-70 494.56,-64 494.56,-58 494.56,-58 494.56,-46 494.56,-46 494.56,-40 500.56,-34 506.56,-34 506.56,-34 643.31,-34 643.31,-34 649.31,-34 655.31,-40 655.31,-46 655.31,-46 655.31,-58 655.31,-58 655.31,-64 649.31,-70 643.31,-70"/>
<text text-anchor="middle" x="574.94" y="-46.58" font-family="Times New Roman,serif" font-size="14.00">InviteLogisticsCompanies</text>
</g>
<!-- A_SelectLogisticsCompany -->
<g id="node9" class="node">
<title>A_SelectLogisticsCompany</title>
<path fill="lightgoldenrodyellow" stroke="black" d="M952.56,-70C952.56,-70 821.06,-70 821.06,-70 815.06,-70 809.06,-64 809.06,-58 809.06,-58 809.06,-46 809.06,-46 809.06,-40 815.06,-34 821.06,-34 821.06,-34 952.56,-34 952.56,-34 958.56,-34 964.56,-40 964.56,-46 964.56,-46 964.56,-58 964.56,-58 964.56,-64 958.56,-70 952.56,-70"/>
<text text-anchor="middle" x="886.81" y="-46.58" font-family="Times New Roman,serif" font-size="14.00">SelectLogisticsCompany</text>
</g>
<!-- A_InviteLogisticsCompanies&#45;&gt;A_SelectLogisticsCompany -->
<g id="edge5" class="edge">
<title>A_InviteLogisticsCompanies&#45;&gt;A_SelectLogisticsCompany</title>
<path fill="none" stroke="black" d="M655.74,-52C699.04,-52 752.68,-52 797.27,-52"/>
<polygon fill="black" stroke="black" points="797.18,-55.5 807.18,-52 797.18,-48.5 797.18,-55.5"/>
</g>
<!-- A_PrepareGoodsForPickup -->
<g id="node7" class="node">
<title>A_PrepareGoodsForPickup</title>
<path fill="lightgoldenrodyellow" stroke="black" d="M1797.38,-36C1797.38,-36 1664.38,-36 1664.38,-36 1658.38,-36 1652.38,-30 1652.38,-24 1652.38,-24 1652.38,-12 1652.38,-12 1652.38,-6 1658.38,0 1664.38,0 1664.38,0 1797.38,0 1797.38,0 1803.38,0 1809.38,-6 1809.38,-12 1809.38,-12 1809.38,-24 1809.38,-24 1809.38,-30 1803.38,-36 1797.38,-36"/>
<text text-anchor="middle" x="1730.88" y="-12.58" font-family="Times New Roman,serif" font-size="14.00">PrepareGoodsForPickup</text>
</g>
<!-- A_PrepareGoodsForPickup&#45;&gt;End_PrepareForPickup -->
<g id="edge11" class="edge">
<title>A_PrepareGoodsForPickup&#45;&gt;End_PrepareForPickup</title>
<path fill="none" stroke="black" d="M1809.51,-18C1818.06,-18 1826.33,-18 1833.72,-18"/>
<polygon fill="black" stroke="black" points="1833.71,-21.5 1843.71,-18 1833.71,-14.5 1833.71,-21.5"/>
</g>
<!-- A_WritePackageLabel -->
<g id="node8" class="node">
<title>A_WritePackageLabel</title>
<path fill="lightgoldenrodyellow" stroke="black" d="M1113.56,-36C1113.56,-36 1013.56,-36 1013.56,-36 1007.56,-36 1001.56,-30 1001.56,-24 1001.56,-24 1001.56,-12 1001.56,-12 1001.56,-6 1007.56,0 1013.56,0 1013.56,0 1113.56,0 1113.56,0 1119.56,0 1125.56,-6 1125.56,-12 1125.56,-12 1125.56,-24 1125.56,-24 1125.56,-30 1119.56,-36 1113.56,-36"/>
<text text-anchor="middle" x="1063.56" y="-12.58" font-family="Times New Roman,serif" font-size="14.00">WritePackageLabel</text>
</g>
<!-- A_WritePackageLabel&#45;&gt;A_ArrangeParcelInsurance -->
<g id="edge7" class="edge">
<title>A_WritePackageLabel&#45;&gt;A_ArrangeParcelInsurance</title>
<path fill="none" stroke="black" d="M1125.95,-18C1134.01,-18 1142.37,-18 1150.74,-18"/>
<polygon fill="black" stroke="black" points="1150.59,-21.5 1160.59,-18 1150.59,-14.5 1150.59,-21.5"/>
</g>
<!-- A_SelectLogisticsCompany&#45;&gt;A_WritePackageLabel -->
<g id="edge6" class="edge">
<title>A_SelectLogisticsCompany&#45;&gt;A_WritePackageLabel</title>
<path fill="none" stroke="black" d="M964.97,-36.99C973.33,-35.36 981.82,-33.71 990.12,-32.1"/>
<polygon fill="black" stroke="black" points="990.66,-35.56 999.81,-30.21 989.33,-28.68 990.66,-35.56"/>
</g>
<!-- XOR_ShippingComplete&#45;&gt;A_PrepareGoodsForPickup -->
<g id="edge10" class="edge">
<title>XOR_ShippingComplete&#45;&gt;A_PrepareGoodsForPickup</title>
<path fill="none" stroke="black" d="M1616.35,-18C1624.1,-18 1632.43,-18 1640.93,-18"/>
<polygon fill="black" stroke="black" points="1640.65,-21.5 1650.65,-18 1640.65,-14.5 1640.65,-21.5"/>
</g>
<!-- XOR_ShippingMethod&#45;&gt;A_InviteLogisticsCompanies -->
<g id="edge3" class="edge">
<title>XOR_ShippingMethod&#45;&gt;A_InviteLogisticsCompanies</title>
<path fill="none" stroke="black" d="M335.1,-25.77C372,-29.82 432.2,-36.43 482.93,-42.01"/>
<polygon fill="black" stroke="black" points="482.44,-45.47 492.76,-43.08 483.2,-38.51 482.44,-45.47"/>
<text text-anchor="middle" x="418.81" y="-42.45" font-family="Times New Roman,serif" font-size="14.00">if the amount is large</text>
</g>
<!-- XOR_ShippingMethod&#45;&gt;A_WritePackageLabel -->
<g id="edge4" class="edge">
<title>XOR_ShippingMethod&#45;&gt;A_WritePackageLabel</title>
<path fill="none" stroke="black" d="M343.65,-21.77C468.57,-21.12 833.35,-19.2 989.86,-18.38"/>
<polygon fill="black" stroke="black" points="989.72,-21.88 999.7,-18.33 989.68,-14.88 989.72,-21.88"/>
<text text-anchor="middle" x="732.19" y="-22.45" font-family="Times New Roman,serif" font-size="14.00">if the amount is small</text>
</g>
</g>
</svg>
