<?xml version="1.0" encoding="UTF-8" standalone="no"?>
<!DOCTYPE svg PUBLIC "-//W3C//DTD SVG 1.1//EN"
 "http://www.w3.org/Graphics/SVG/1.1/DTD/svg11.dtd">
<!-- Generated by graphviz version 12.0.0 (20240704.0754)
 -->
<!-- Title: BPMN Pages: 1 -->
<svg width="1364pt" height="107pt"
 viewBox="0.00 0.00 1363.88 107.00" xmlns="http://www.w3.org/2000/svg" xmlns:xlink="http://www.w3.org/1999/xlink">
<g id="graph0" class="graph" transform="scale(1 1) rotate(0) translate(4 103)">
<title>BPMN</title>
<polygon fill="white" stroke="none" points="-4,4 -4,-103 1359.88,-103 1359.88,4 -4,4"/>
<!-- Start_RegisterInquiry -->
<g id="node1" class="node">
<title>Start_RegisterInquiry</title>
<ellipse fill="forestgreen" stroke="forestgreen" stroke-width="2" cx="18" cy="-21" rx="18" ry="18"/>
</g>
<!-- A_RegisterInquiry -->
<g id="node3" class="node">
<title>A_RegisterInquiry</title>
<path fill="lightgoldenrodyellow" stroke="black" d="M162.5,-39C162.5,-39 85,-39 85,-39 79,-39 73,-33 73,-27 73,-27 73,-15 73,-15 73,-9 79,-3 85,-3 85,-3 162.5,-3 162.5,-3 168.5,-3 174.5,-9 174.5,-15 174.5,-15 174.5,-27 174.5,-27 174.5,-33 168.5,-39 162.5,-39"/>
<text text-anchor="middle" x="123.75" y="-15.57" font-family="Times New Roman,serif" font-size="14.00">RegisterInquiry</text>
</g>
<!-- Start_RegisterInquiry&#45;&gt;A_RegisterInquiry -->
<g id="edge1" class="edge">
<title>Start_RegisterInquiry&#45;&gt;A_RegisterInquiry</title>
<path fill="none" stroke="black" d="M36.6,-21C43.75,-21 52.48,-21 61.6,-21"/>
<polygon fill="black" stroke="black" points="61.32,-24.5 71.32,-21 61.32,-17.5 61.32,-24.5"/>
</g>
<!-- End_FinalizeAndApproveResponse -->
<g id="node2" class="node">
<title>End_FinalizeAndApproveResponse</title>
<ellipse fill="firebrick" stroke="firebrick" stroke-width="3" cx="1337.88" cy="-81" rx="18" ry="18"/>
</g>
<!-- A_InvestigateInquiry -->
<g id="node6" class="node">
<title>A_InvestigateInquiry</title>
<path fill="lightgoldenrodyellow" stroke="black" d="M314.5,-39C314.5,-39 223.5,-39 223.5,-39 217.5,-39 211.5,-33 211.5,-27 211.5,-27 211.5,-15 211.5,-15 211.5,-9 217.5,-3 223.5,-3 223.5,-3 314.5,-3 314.5,-3 320.5,-3 326.5,-9 326.5,-15 326.5,-15 326.5,-27 326.5,-27 326.5,-33 320.5,-39 314.5,-39"/>
<text text-anchor="middle" x="269" y="-15.57" font-family="Times New Roman,serif" font-size="14.00">InvestigateInquiry</text>
</g>
<!-- A_RegisterInquiry&#45;&gt;A_InvestigateInquiry -->
<g id="edge2" class="edge">
<title>A_RegisterInquiry&#45;&gt;A_InvestigateInquiry</title>
<path fill="none" stroke="black" d="M174.85,-21C182.95,-21 191.45,-21 199.89,-21"/>
<polygon fill="black" stroke="black" points="199.8,-24.5 209.8,-21 199.8,-17.5 199.8,-24.5"/>
</g>
<!-- A_PrepareResponse -->
<g id="node4" class="node">
<title>A_PrepareResponse</title>
<path fill="lightgoldenrodyellow" stroke="black" d="M465.75,-39C465.75,-39 375.5,-39 375.5,-39 369.5,-39 363.5,-33 363.5,-27 363.5,-27 363.5,-15 363.5,-15 363.5,-9 369.5,-3 375.5,-3 375.5,-3 465.75,-3 465.75,-3 471.75,-3 477.75,-9 477.75,-15 477.75,-15 477.75,-27 477.75,-27 477.75,-33 471.75,-39 465.75,-39"/>
<text text-anchor="middle" x="420.63" y="-15.57" font-family="Times New Roman,serif" font-size="14.00">PrepareResponse</text>
</g>
<!-- A_ReviewResponse -->
<g id="node7" class="node">
<title>A_ReviewResponse</title>
<path fill="lightgoldenrodyellow" stroke="black" d="M615.5,-73C615.5,-73 526.75,-73 526.75,-73 520.75,-73 514.75,-67 514.75,-61 514.75,-61 514.75,-49 514.75,-49 514.75,-43 520.75,-37 526.75,-37 526.75,-37 615.5,-37 615.5,-37 621.5,-37 627.5,-43 627.5,-49 627.5,-49 627.5,-61 627.5,-61 627.5,-67 621.5,-73 615.5,-73"/>
<text text-anchor="middle" x="571.13" y="-49.58" font-family="Times New Roman,serif" font-size="14.00">ReviewResponse</text>
</g>
<!-- A_PrepareResponse&#45;&gt;A_ReviewResponse -->
<g id="edge4" class="edge">
<title>A_PrepareResponse&#45;&gt;A_ReviewResponse</title>
<path fill="none" stroke="black" d="M478.19,-33.95C486.51,-35.86 495.15,-37.83 503.64,-39.78"/>
<polygon fill="black" stroke="black" points="502.69,-43.15 513.22,-41.97 504.26,-36.33 502.69,-43.15"/>
</g>
<!-- A_RejectResponse -->
<g id="node5" class="node">
<title>A_RejectResponse</title>
<path fill="lightgoldenrodyellow" stroke="black" d="M1140.19,-36C1140.19,-36 1057.44,-36 1057.44,-36 1051.44,-36 1045.44,-30 1045.44,-24 1045.44,-24 1045.44,-12 1045.44,-12 1045.44,-6 1051.44,0 1057.44,0 1057.44,0 1140.19,0 1140.19,0 1146.19,0 1152.19,-6 1152.19,-12 1152.19,-12 1152.19,-24 1152.19,-24 1152.19,-30 1146.19,-36 1140.19,-36"/>
<text text-anchor="middle" x="1098.81" y="-12.57" font-family="Times New Roman,serif" font-size="14.00">RejectResponse</text>
</g>
<!-- A_RejectResponse&#45;&gt;A_PrepareResponse -->
<g id="edge8" class="edge">
<title>A_RejectResponse&#45;&gt;A_PrepareResponse</title>
<path fill="none" stroke="black" d="M1045.24,-18.23C923.9,-18.77 624.43,-20.1 489.49,-20.7"/>
<polygon fill="black" stroke="black" points="489.61,-17.2 479.63,-20.74 489.64,-24.2 489.61,-17.2"/>
</g>
<!-- A_InvestigateInquiry&#45;&gt;A_PrepareResponse -->
<g id="edge3" class="edge">
<title>A_InvestigateInquiry&#45;&gt;A_PrepareResponse</title>
<path fill="none" stroke="black" d="M326.99,-21C335.17,-21 343.65,-21 352,-21"/>
<polygon fill="black" stroke="black" points="351.77,-24.5 361.77,-21 351.77,-17.5 351.77,-24.5"/>
</g>
<!-- XOR_ReviewResponseDecision -->
<g id="node10" class="node">
<title>XOR_ReviewResponseDecision</title>
<polygon fill="gold" stroke="black" points="707.78,-73 664.5,-55 707.78,-37 751.06,-55 707.78,-73"/>
<text text-anchor="middle" x="707.78" y="-49.58" font-family="Times New Roman,serif" font-size="14.00">XOR</text>
</g>
<!-- A_ReviewResponse&#45;&gt;XOR_ReviewResponseDecision -->
<g id="edge5" class="edge">
<title>A_ReviewResponse&#45;&gt;XOR_ReviewResponseDecision</title>
<path fill="none" stroke="black" d="M627.67,-55C635.66,-55 643.87,-55 651.84,-55"/>
<polygon fill="black" stroke="black" points="651.78,-58.5 661.78,-55 651.78,-51.5 651.78,-58.5"/>
</g>
<!-- A_ApproveResponse -->
<g id="node8" class="node">
<title>A_ApproveResponse</title>
<path fill="lightgoldenrodyellow" stroke="black" d="M1147.31,-99C1147.31,-99 1050.31,-99 1050.31,-99 1044.31,-99 1038.31,-93 1038.31,-87 1038.31,-87 1038.31,-75 1038.31,-75 1038.31,-69 1044.31,-63 1050.31,-63 1050.31,-63 1147.31,-63 1147.31,-63 1153.31,-63 1159.31,-69 1159.31,-75 1159.31,-75 1159.31,-87 1159.31,-87 1159.31,-93 1153.31,-99 1147.31,-99"/>
<text text-anchor="middle" x="1098.81" y="-75.58" font-family="Times New Roman,serif" font-size="14.00">ApproveResponse</text>
</g>
<!-- XOR_FinalizeResponse -->
<g id="node9" class="node">
<title>XOR_FinalizeResponse</title>
<polygon fill="gold" stroke="black" points="1239.6,-99 1196.31,-81 1239.6,-63 1282.88,-81 1239.6,-99"/>
<text text-anchor="middle" x="1239.6" y="-75.58" font-family="Times New Roman,serif" font-size="14.00">XOR</text>
</g>
<!-- A_ApproveResponse&#45;&gt;XOR_FinalizeResponse -->
<g id="edge9" class="edge">
<title>A_ApproveResponse&#45;&gt;XOR_FinalizeResponse</title>
<path fill="none" stroke="black" d="M1159.48,-81C1167.57,-81 1175.85,-81 1183.85,-81"/>
<polygon fill="black" stroke="black" points="1183.81,-84.5 1193.81,-81 1183.81,-77.5 1183.81,-84.5"/>
</g>
<!-- XOR_FinalizeResponse&#45;&gt;End_FinalizeAndApproveResponse -->
<g id="edge10" class="edge">
<title>XOR_FinalizeResponse&#45;&gt;End_FinalizeAndApproveResponse</title>
<path fill="none" stroke="black" d="M1283.95,-81C1291.85,-81 1299.92,-81 1307.3,-81"/>
<polygon fill="black" stroke="black" points="1307.05,-84.5 1317.05,-81 1307.05,-77.5 1307.05,-84.5"/>
</g>
<!-- XOR_ReviewResponseDecision&#45;&gt;A_RejectResponse -->
<g id="edge7" class="edge">
<title>XOR_ReviewResponseDecision&#45;&gt;A_RejectResponse</title>
<path fill="none" stroke="black" d="M733.78,-47.33C744.54,-44.32 757.32,-41.15 769.06,-39.25 818.34,-31.3 953.24,-24.31 1034.11,-20.67"/>
<polygon fill="black" stroke="black" points="1033.8,-24.19 1043.63,-20.25 1033.48,-17.19 1033.8,-24.19"/>
<text text-anchor="middle" x="894.69" y="-41.45" font-family="Times New Roman,serif" font-size="14.00">if response does not meet required standards</text>
</g>
<!-- XOR_ReviewResponseDecision&#45;&gt;A_ApproveResponse -->
<g id="edge6" class="edge">
<title>XOR_ReviewResponseDecision&#45;&gt;A_ApproveResponse</title>
<path fill="none" stroke="black" d="M746.08,-57.49C810.56,-61.8 943.89,-70.71 1026.6,-76.24"/>
<polygon fill="black" stroke="black" points="1026.2,-79.72 1036.41,-76.9 1026.67,-72.74 1026.2,-79.72"/>
<text text-anchor="middle" x="894.69" y="-77.45" font-family="Times New Roman,serif" font-size="14.00">if response meets required standards</text>
</g>
</g>
</svg>
