<?xml version="1.0" encoding="UTF-8" standalone="no"?>
<!DOCTYPE svg PUBLIC "-//W3C//DTD SVG 1.1//EN"
 "http://www.w3.org/Graphics/SVG/1.1/DTD/svg11.dtd">
<!-- Generated by graphviz version 12.0.0 (20240704.0754)
 -->
<!-- Title: BPMN Pages: 1 -->
<svg width="1291pt" height="107pt"
 viewBox="0.00 0.00 1291.13 107.00" xmlns="http://www.w3.org/2000/svg" xmlns:xlink="http://www.w3.org/1999/xlink">
<g id="graph0" class="graph" transform="scale(1 1) rotate(0) translate(4 103)">
<title>BPMN</title>
<polygon fill="white" stroke="none" points="-4,4 -4,-103 1287.13,-103 1287.13,4 -4,4"/>
<!-- Start_RegisterInquiry -->
<g id="node1" class="node">
<title>Start_RegisterInquiry</title>
<ellipse fill="forestgreen" stroke="forestgreen" stroke-width="2" cx="18" cy="-21" rx="18" ry="18"/>
</g>
<!-- A_RegisterInquiry -->
<g id="node3" class="node">
<title>A_RegisterInquiry</title>
<path fill="lightgoldenrodyellow" stroke="black" d="M162.5,-39C162.5,-39 85,-39 85,-39 79,-39 73,-33 73,-27 73,-27 73,-15 73,-15 73,-9 79,-3 85,-3 85,-3 162.5,-3 162.5,-3 168.5,-3 174.5,-9 174.5,-15 174.5,-15 174.5,-27 174.5,-27 174.5,-33 168.5,-39 162.5,-39"/>
<text text-anchor="middle" x="123.75" y="-15.57" font-family="Times New Roman,serif" font-size="14.00">RegisterInquiry</text>
</g>
<!-- Start_RegisterInquiry&#45;&gt;A_RegisterInquiry -->
<g id="edge1" class="edge">
<title>Start_RegisterInquiry&#45;&gt;A_RegisterInquiry</title>
<path fill="none" stroke="black" d="M36.6,-21C43.75,-21 52.48,-21 61.6,-21"/>
<polygon fill="black" stroke="black" points="61.32,-24.5 71.32,-21 61.32,-17.5 61.32,-24.5"/>
</g>
<!-- End_ApproveResponse -->
<g id="node2" class="node">
<title>End_ApproveResponse</title>
<ellipse fill="firebrick" stroke="firebrick" stroke-width="3" cx="1265.13" cy="-81" rx="18" ry="18"/>
</g>
<!-- A_InvestigateInquiry -->
<g id="node8" class="node">
<title>A_InvestigateInquiry</title>
<path fill="lightgoldenrodyellow" stroke="black" d="M314.5,-39C314.5,-39 223.5,-39 223.5,-39 217.5,-39 211.5,-33 211.5,-27 211.5,-27 211.5,-15 211.5,-15 211.5,-9 217.5,-3 223.5,-3 223.5,-3 314.5,-3 314.5,-3 320.5,-3 326.5,-9 326.5,-15 326.5,-15 326.5,-27 326.5,-27 326.5,-33 320.5,-39 314.5,-39"/>
<text text-anchor="middle" x="269" y="-15.57" font-family="Times New Roman,serif" font-size="14.00">InvestigateInquiry</text>
</g>
<!-- A_RegisterInquiry&#45;&gt;A_InvestigateInquiry -->
<g id="edge2" class="edge">
<title>A_RegisterInquiry&#45;&gt;A_InvestigateInquiry</title>
<path fill="none" stroke="black" d="M174.85,-21C182.95,-21 191.45,-21 199.89,-21"/>
<polygon fill="black" stroke="black" points="199.8,-24.5 209.8,-21 199.8,-17.5 199.8,-24.5"/>
</g>
<!-- A_ApproveResponse -->
<g id="node4" class="node">
<title>A_ApproveResponse</title>
<path fill="lightgoldenrodyellow" stroke="black" d="M1061.81,-99C1061.81,-99 964.81,-99 964.81,-99 958.81,-99 952.81,-93 952.81,-87 952.81,-87 952.81,-75 952.81,-75 952.81,-69 958.81,-63 964.81,-63 964.81,-63 1061.81,-63 1061.81,-63 1067.81,-63 1073.81,-69 1073.81,-75 1073.81,-75 1073.81,-87 1073.81,-87 1073.81,-93 1067.81,-99 1061.81,-99"/>
<text text-anchor="middle" x="1013.31" y="-75.58" font-family="Times New Roman,serif" font-size="14.00">ApproveResponse</text>
</g>
<!-- XOR_FinalizeResponse -->
<g id="node10" class="node">
<title>XOR_FinalizeResponse</title>
<polygon fill="gold" stroke="black" points="1166.85,-99 1123.56,-81 1166.85,-63 1210.13,-81 1166.85,-99"/>
<text text-anchor="middle" x="1166.85" y="-75.58" font-family="Times New Roman,serif" font-size="14.00">XOR</text>
</g>
<!-- A_ApproveResponse&#45;&gt;XOR_FinalizeResponse -->
<g id="edge9" class="edge">
<title>A_ApproveResponse&#45;&gt;XOR_FinalizeResponse</title>
<path fill="none" stroke="black" d="M1074.2,-81C1086.37,-81 1099.1,-81 1111.07,-81"/>
<polygon fill="black" stroke="black" points="1110.76,-84.5 1120.76,-81 1110.76,-77.5 1110.76,-84.5"/>
</g>
<!-- A_PrepareResponse -->
<g id="node5" class="node">
<title>A_PrepareResponse</title>
<path fill="lightgoldenrodyellow" stroke="black" d="M465.75,-39C465.75,-39 375.5,-39 375.5,-39 369.5,-39 363.5,-33 363.5,-27 363.5,-27 363.5,-15 363.5,-15 363.5,-9 369.5,-3 375.5,-3 375.5,-3 465.75,-3 465.75,-3 471.75,-3 477.75,-9 477.75,-15 477.75,-15 477.75,-27 477.75,-27 477.75,-33 471.75,-39 465.75,-39"/>
<text text-anchor="middle" x="420.63" y="-15.57" font-family="Times New Roman,serif" font-size="14.00">PrepareResponse</text>
</g>
<!-- A_ReviewResponse -->
<g id="node6" class="node">
<title>A_ReviewResponse</title>
<path fill="lightgoldenrodyellow" stroke="black" d="M615.5,-39C615.5,-39 526.75,-39 526.75,-39 520.75,-39 514.75,-33 514.75,-27 514.75,-27 514.75,-15 514.75,-15 514.75,-9 520.75,-3 526.75,-3 526.75,-3 615.5,-3 615.5,-3 621.5,-3 627.5,-9 627.5,-15 627.5,-15 627.5,-27 627.5,-27 627.5,-33 621.5,-39 615.5,-39"/>
<text text-anchor="middle" x="571.13" y="-15.57" font-family="Times New Roman,serif" font-size="14.00">ReviewResponse</text>
</g>
<!-- A_PrepareResponse&#45;&gt;A_ReviewResponse -->
<g id="edge4" class="edge">
<title>A_PrepareResponse&#45;&gt;A_ReviewResponse</title>
<path fill="none" stroke="black" d="M478.19,-21C486.42,-21 494.95,-21 503.36,-21"/>
<polygon fill="black" stroke="black" points="503.19,-24.5 513.19,-21 503.19,-17.5 503.19,-24.5"/>
</g>
<!-- XOR_ReviewResponse -->
<g id="node9" class="node">
<title>XOR_ReviewResponse</title>
<polygon fill="gold" stroke="black" points="707.78,-73 664.5,-55 707.78,-37 751.06,-55 707.78,-73"/>
<text text-anchor="middle" x="707.78" y="-49.58" font-family="Times New Roman,serif" font-size="14.00">XOR</text>
</g>
<!-- A_ReviewResponse&#45;&gt;XOR_ReviewResponse -->
<g id="edge5" class="edge">
<title>A_ReviewResponse&#45;&gt;XOR_ReviewResponse</title>
<path fill="none" stroke="black" d="M627.67,-35.03C641.43,-38.5 655.86,-42.14 668.58,-45.35"/>
<polygon fill="black" stroke="black" points="667.68,-48.74 678.24,-47.79 669.4,-41.95 667.68,-48.74"/>
</g>
<!-- A_PrepareResponseAgain -->
<g id="node7" class="node">
<title>A_PrepareResponseAgain</title>
<path fill="lightgoldenrodyellow" stroke="black" d="M1074.56,-36C1074.56,-36 952.06,-36 952.06,-36 946.06,-36 940.06,-30 940.06,-24 940.06,-24 940.06,-12 940.06,-12 940.06,-6 946.06,0 952.06,0 952.06,0 1074.56,0 1074.56,0 1080.56,0 1086.56,-6 1086.56,-12 1086.56,-12 1086.56,-24 1086.56,-24 1086.56,-30 1080.56,-36 1074.56,-36"/>
<text text-anchor="middle" x="1013.31" y="-12.57" font-family="Times New Roman,serif" font-size="14.00">PrepareResponseAgain</text>
</g>
<!-- A_PrepareResponseAgain&#45;&gt;A_ReviewResponse -->
<g id="edge8" class="edge">
<title>A_PrepareResponseAgain&#45;&gt;A_ReviewResponse</title>
<path fill="none" stroke="black" d="M939.86,-18.49C856.3,-19.06 720.05,-19.99 638.94,-20.54"/>
<polygon fill="black" stroke="black" points="639.36,-17.04 629.39,-20.61 639.41,-24.04 639.36,-17.04"/>
</g>
<!-- A_InvestigateInquiry&#45;&gt;A_PrepareResponse -->
<g id="edge3" class="edge">
<title>A_InvestigateInquiry&#45;&gt;A_PrepareResponse</title>
<path fill="none" stroke="black" d="M326.99,-21C335.17,-21 343.65,-21 352,-21"/>
<polygon fill="black" stroke="black" points="351.77,-24.5 361.77,-21 351.77,-17.5 351.77,-24.5"/>
</g>
<!-- XOR_ReviewResponse&#45;&gt;A_ApproveResponse -->
<g id="edge7" class="edge">
<title>XOR_ReviewResponse&#45;&gt;A_ApproveResponse</title>
<path fill="none" stroke="black" d="M744.79,-58.08C792.99,-62.21 879.52,-69.63 941.12,-74.9"/>
<polygon fill="black" stroke="black" points="940.55,-78.37 950.81,-75.73 941.14,-71.39 940.55,-78.37"/>
<text text-anchor="middle" x="845.56" y="-74.45" font-family="Times New Roman,serif" font-size="14.00">if response is approved</text>
</g>
<!-- XOR_ReviewResponse&#45;&gt;A_PrepareResponseAgain -->
<g id="edge6" class="edge">
<title>XOR_ReviewResponse&#45;&gt;A_PrepareResponseAgain</title>
<path fill="none" stroke="black" d="M734.72,-47.76C745.3,-45.04 757.69,-42.15 769.06,-40.25 821.62,-31.47 881.18,-25.95 928.21,-22.6"/>
<polygon fill="black" stroke="black" points="928.33,-26.1 938.06,-21.92 927.85,-19.12 928.33,-26.1"/>
<text text-anchor="middle" x="845.56" y="-42.45" font-family="Times New Roman,serif" font-size="14.00">if response is not approved</text>
</g>
<!-- XOR_FinalizeResponse&#45;&gt;End_ApproveResponse -->
<g id="edge10" class="edge">
<title>XOR_FinalizeResponse&#45;&gt;End_ApproveResponse</title>
<path fill="none" stroke="black" d="M1211.2,-81C1219.1,-81 1227.17,-81 1234.55,-81"/>
<polygon fill="black" stroke="black" points="1234.3,-84.5 1244.3,-81 1234.3,-77.5 1234.3,-84.5"/>
</g>
</g>
</svg>
