<?xml version="1.0" encoding="UTF-8" standalone="no"?>
<!DOCTYPE svg PUBLIC "-//W3C//DTD SVG 1.1//EN"
 "http://www.w3.org/Graphics/SVG/1.1/DTD/svg11.dtd">
<!-- Generated by graphviz version 12.0.0 (20240704.0754)
 -->
<!-- Title: BPMN Pages: 1 -->
<svg width="1103pt" height="127pt"
 viewBox="0.00 0.00 1102.81 127.00" xmlns="http://www.w3.org/2000/svg" xmlns:xlink="http://www.w3.org/1999/xlink">
<g id="graph0" class="graph" transform="scale(1 1) rotate(0) translate(4 123)">
<title>BPMN</title>
<polygon fill="white" stroke="none" points="-4,4 -4,-123 1098.81,-123 1098.81,4 -4,4"/>
<!-- Start_RegisterInquiry -->
<g id="node1" class="node">
<title>Start_RegisterInquiry</title>
<ellipse fill="forestgreen" stroke="forestgreen" stroke-width="2" cx="18" cy="-73" rx="18" ry="18"/>
</g>
<!-- A_RegisterInquiry -->
<g id="node7" class="node">
<title>A_RegisterInquiry</title>
<path fill="lightgoldenrodyellow" stroke="black" d="M162.5,-91C162.5,-91 85,-91 85,-91 79,-91 73,-85 73,-79 73,-79 73,-67 73,-67 73,-61 79,-55 85,-55 85,-55 162.5,-55 162.5,-55 168.5,-55 174.5,-61 174.5,-67 174.5,-67 174.5,-79 174.5,-79 174.5,-85 168.5,-91 162.5,-91"/>
<text text-anchor="middle" x="123.75" y="-67.58" font-family="Times New Roman,serif" font-size="14.00">RegisterInquiry</text>
</g>
<!-- Start_RegisterInquiry&#45;&gt;A_RegisterInquiry -->
<g id="edge1" class="edge">
<title>Start_RegisterInquiry&#45;&gt;A_RegisterInquiry</title>
<path fill="none" stroke="black" d="M36.6,-73C43.75,-73 52.48,-73 61.6,-73"/>
<polygon fill="black" stroke="black" points="61.32,-76.5 71.32,-73 61.32,-69.5 61.32,-76.5"/>
</g>
<!-- End_ApproveResponse -->
<g id="node2" class="node">
<title>End_ApproveResponse</title>
<ellipse fill="firebrick" stroke="firebrick" stroke-width="3" cx="1030.19" cy="-38" rx="18" ry="18"/>
</g>
<!-- A_ReprepareResponse -->
<g id="node3" class="node">
<title>A_ReprepareResponse</title>
<path fill="lightgoldenrodyellow" stroke="black" d="M1082.81,-119C1082.81,-119 977.56,-119 977.56,-119 971.56,-119 965.56,-113 965.56,-107 965.56,-107 965.56,-95 965.56,-95 965.56,-89 971.56,-83 977.56,-83 977.56,-83 1082.81,-83 1082.81,-83 1088.81,-83 1094.81,-89 1094.81,-95 1094.81,-95 1094.81,-107 1094.81,-107 1094.81,-113 1088.81,-119 1082.81,-119"/>
<text text-anchor="middle" x="1030.19" y="-95.58" font-family="Times New Roman,serif" font-size="14.00">ReprepareResponse</text>
</g>
<!-- A_ReviewResponse -->
<g id="node4" class="node">
<title>A_ReviewResponse</title>
<path fill="lightgoldenrodyellow" stroke="black" d="M615.5,-91C615.5,-91 526.75,-91 526.75,-91 520.75,-91 514.75,-85 514.75,-79 514.75,-79 514.75,-67 514.75,-67 514.75,-61 520.75,-55 526.75,-55 526.75,-55 615.5,-55 615.5,-55 621.5,-55 627.5,-61 627.5,-67 627.5,-67 627.5,-79 627.5,-79 627.5,-85 621.5,-91 615.5,-91"/>
<text text-anchor="middle" x="571.12" y="-67.58" font-family="Times New Roman,serif" font-size="14.00">ReviewResponse</text>
</g>
<!-- A_ReprepareResponse&#45;&gt;A_ReviewResponse -->
<g id="edge8" class="edge">
<title>A_ReprepareResponse&#45;&gt;A_ReviewResponse</title>
<path fill="none" stroke="black" d="M965.38,-107.24C892.14,-112.92 768.7,-117.98 664.5,-100 656.14,-98.56 647.47,-96.63 638.93,-94.46"/>
<polygon fill="black" stroke="black" points="639.85,-91.08 629.29,-91.88 638.04,-97.84 639.85,-91.08"/>
</g>
<!-- XOR_ReviewResponseApproval -->
<g id="node8" class="node">
<title>XOR_ReviewResponseApproval</title>
<polygon fill="gold" stroke="black" points="707.78,-91 664.5,-73 707.78,-55 751.06,-73 707.78,-91"/>
<text text-anchor="middle" x="707.78" y="-67.58" font-family="Times New Roman,serif" font-size="14.00">XOR</text>
</g>
<!-- A_ReviewResponse&#45;&gt;XOR_ReviewResponseApproval -->
<g id="edge5" class="edge">
<title>A_ReviewResponse&#45;&gt;XOR_ReviewResponseApproval</title>
<path fill="none" stroke="black" d="M627.67,-73C635.66,-73 643.87,-73 651.84,-73"/>
<polygon fill="black" stroke="black" points="651.78,-76.5 661.78,-73 651.78,-69.5 651.78,-76.5"/>
</g>
<!-- XOR_ResponseFinalization -->
<g id="node9" class="node">
<title>XOR_ResponseFinalization</title>
<polygon fill="gold" stroke="black" points="707.78,-36 664.5,-18 707.78,0 751.06,-18 707.78,-36"/>
<text text-anchor="middle" x="707.78" y="-12.57" font-family="Times New Roman,serif" font-size="14.00">XOR</text>
</g>
<!-- A_ReviewResponse&#45;&gt;XOR_ResponseFinalization -->
<g id="edge9" class="edge">
<title>A_ReviewResponse&#45;&gt;XOR_ResponseFinalization</title>
<path fill="none" stroke="black" d="M617.34,-54.53C636.02,-46.9 657.25,-38.23 674.34,-31.25"/>
<polygon fill="black" stroke="black" points="675.56,-34.53 683.5,-27.51 672.92,-28.05 675.56,-34.53"/>
</g>
<!-- A_PrepareResponse -->
<g id="node5" class="node">
<title>A_PrepareResponse</title>
<path fill="lightgoldenrodyellow" stroke="black" d="M465.75,-91C465.75,-91 375.5,-91 375.5,-91 369.5,-91 363.5,-85 363.5,-79 363.5,-79 363.5,-67 363.5,-67 363.5,-61 369.5,-55 375.5,-55 375.5,-55 465.75,-55 465.75,-55 471.75,-55 477.75,-61 477.75,-67 477.75,-67 477.75,-79 477.75,-79 477.75,-85 471.75,-91 465.75,-91"/>
<text text-anchor="middle" x="420.62" y="-67.58" font-family="Times New Roman,serif" font-size="14.00">PrepareResponse</text>
</g>
<!-- A_PrepareResponse&#45;&gt;A_ReviewResponse -->
<g id="edge4" class="edge">
<title>A_PrepareResponse&#45;&gt;A_ReviewResponse</title>
<path fill="none" stroke="black" d="M478.19,-73C486.42,-73 494.95,-73 503.36,-73"/>
<polygon fill="black" stroke="black" points="503.19,-76.5 513.19,-73 503.19,-69.5 503.19,-76.5"/>
</g>
<!-- A_InvestigateInquiry -->
<g id="node6" class="node">
<title>A_InvestigateInquiry</title>
<path fill="lightgoldenrodyellow" stroke="black" d="M314.5,-91C314.5,-91 223.5,-91 223.5,-91 217.5,-91 211.5,-85 211.5,-79 211.5,-79 211.5,-67 211.5,-67 211.5,-61 217.5,-55 223.5,-55 223.5,-55 314.5,-55 314.5,-55 320.5,-55 326.5,-61 326.5,-67 326.5,-67 326.5,-79 326.5,-79 326.5,-85 320.5,-91 314.5,-91"/>
<text text-anchor="middle" x="269" y="-67.58" font-family="Times New Roman,serif" font-size="14.00">InvestigateInquiry</text>
</g>
<!-- A_InvestigateInquiry&#45;&gt;A_PrepareResponse -->
<g id="edge3" class="edge">
<title>A_InvestigateInquiry&#45;&gt;A_PrepareResponse</title>
<path fill="none" stroke="black" d="M326.99,-73C335.17,-73 343.65,-73 352,-73"/>
<polygon fill="black" stroke="black" points="351.77,-76.5 361.77,-73 351.77,-69.5 351.77,-76.5"/>
</g>
<!-- A_RegisterInquiry&#45;&gt;A_InvestigateInquiry -->
<g id="edge2" class="edge">
<title>A_RegisterInquiry&#45;&gt;A_InvestigateInquiry</title>
<path fill="none" stroke="black" d="M174.85,-73C182.95,-73 191.45,-73 199.89,-73"/>
<polygon fill="black" stroke="black" points="199.8,-76.5 209.8,-73 199.8,-69.5 199.8,-76.5"/>
</g>
<!-- XOR_ReviewResponseApproval&#45;&gt;End_ApproveResponse -->
<g id="edge7" class="edge">
<title>XOR_ReviewResponseApproval&#45;&gt;End_ApproveResponse</title>
<path fill="none" stroke="black" d="M733.16,-65.02C744.04,-61.78 757.08,-58.31 769.06,-56.25 851.73,-42.01 951.01,-38.82 999.54,-38.15"/>
<polygon fill="black" stroke="black" points="999.27,-41.65 1009.23,-38.04 999.19,-34.65 999.27,-41.65"/>
<text text-anchor="middle" x="858.31" y="-58.45" font-family="Times New Roman,serif" font-size="14.00">if the registrar approves</text>
</g>
<!-- XOR_ReviewResponseApproval&#45;&gt;A_ReprepareResponse -->
<g id="edge6" class="edge">
<title>XOR_ReviewResponseApproval&#45;&gt;A_ReprepareResponse</title>
<path fill="none" stroke="black" d="M747.3,-75.08C794.55,-77.8 877.06,-83.07 947.56,-90.25 949.61,-90.46 951.68,-90.68 953.77,-90.9"/>
<polygon fill="black" stroke="black" points="953.23,-94.37 963.56,-92.02 954.03,-87.41 953.23,-94.37"/>
<text text-anchor="middle" x="858.31" y="-92.45" font-family="Times New Roman,serif" font-size="14.00">if the registrar does not approve</text>
</g>
<!-- XOR_ResponseFinalization&#45;&gt;End_ApproveResponse -->
<g id="edge10" class="edge">
<title>XOR_ResponseFinalization&#45;&gt;End_ApproveResponse</title>
<path fill="none" stroke="black" d="M748.1,-19.76C795.45,-21.98 877.37,-26.08 947.56,-31 964.98,-32.22 984.45,-33.88 1000.01,-35.28"/>
<polygon fill="black" stroke="black" points="999.26,-38.72 1009.54,-36.14 999.9,-31.75 999.26,-38.72"/>
</g>
</g>
</svg>
